<?xml version="1.0" encoding="UTF-8" standalone="no"?>
<!DOCTYPE svg PUBLIC "-//W3C//DTD SVG 1.1//EN"
 "http://www.w3.org/Graphics/SVG/1.1/DTD/svg11.dtd">
<!-- Generated by graphviz version 2.22.2 (20090313.1817)
 -->
<!-- Title: architecture Pages: 1 -->
<svg width="454pt" height="440pt"
 viewBox="0.00 0.00 454.00 440.00" xmlns="http://www.w3.org/2000/svg" xmlns:xlink="http://www.w3.org/1999/xlink">
<g id="graph1" class="graph" transform="scale(1 1) rotate(0) translate(4 436)">
<title>architecture</title>
<polygon fill="white" stroke="white" points="-4,5 -4,-436 451,-436 451,5 -4,5"/>
<!-- ss -->
<g id="node1" class="node"><title>ss</title>
<polygon fill="none" stroke="black" points="313,-234 153,-234 153,-198 313,-198 313,-234"/>
<text text-anchor="middle" x="233" y="-211.9" font-family="Times Roman,serif" font-size="14.00"> &#160;&#160;systemState:Graph &#160;&#160;</text>
</g>
<!-- ss&#45;&gt;ss -->
<g id="edge8" class="edge"><title>ss:nw&#45;&gt;ss:s</title>
<path fill="none" stroke="black" d="M153,-234C147,-258.5 135,-258.5 135,-216 135,-176.986 190.054,-173.786 224.356,-192.475"/>
<polygon fill="black" stroke="black" points="222.689,-195.564 233,-198 226.459,-189.666 222.689,-195.564"/>
<text text-anchor="middle" x="117" y="-211.9" font-family="Times Roman,serif" font-size="14.00">editor</text>
</g>
<!-- ss&#45;&gt;ss -->
<g id="edge10" class="edge"><title>ss:ne&#45;&gt;ss:s</title>
<path fill="none" stroke="black" d="M313,-234C319,-258.5 331,-258.5 331,-216 331,-176.986 275.946,-173.786 241.644,-192.475"/>
<polygon fill="black" stroke="black" points="239.541,-189.666 233,-198 243.311,-195.564 239.541,-189.666"/>
<text text-anchor="middle" x="365.5" y="-211.9" font-family="Times Roman,serif" font-size="14.00">transitioner</text>
</g>
<!-- :Bool -->
<g id="node11" class="node"><title>:Bool</title>
<polygon fill="none" stroke="black" points="260,-36 206,-36 206,-1.06581e-014 260,-0 260,-36"/>
<text text-anchor="middle" x="233" y="-13.9" font-family="Times Roman,serif" font-size="14.00">:Bool</text>
</g>
<!-- ss&#45;&gt;:Bool -->
<g id="edge12" class="edge"><title>ss&#45;&gt;:Bool</title>
<path fill="none" stroke="black" d="M233,-197.728C233,-163.102 233,-87.7101 233,-46.4256"/>
<polygon fill="black" stroke="black" points="236.5,-46.2283 233,-36.2283 229.5,-46.2283 236.5,-46.2283"/>
<text text-anchor="middle" x="255.5" y="-112.9" font-family="Times Roman,serif" font-size="14.00">checks</text>
</g>
<!-- metamodel:UML/EMF -->
<g id="node2" class="node"><title>metamodel:UML/EMF</title>
<polygon fill="none" stroke="black" points="154,-432 4.26326e-014,-432 0,-396 154,-396 154,-432"/>
<text text-anchor="middle" x="77" y="-409.9" font-family="Times Roman,serif" font-size="14.00">metamodel:UML/EMF</text>
</g>
<!-- metamodel:UML/EMF&#45;&gt;ss -->
<g id="edge2" class="edge"><title>metamodel:UML/EMF&#45;&gt;ss</title>
<path fill="none" stroke="black" d="M91.3965,-395.728C119.2,-360.439 180.364,-282.808 212.443,-242.092"/>
<polygon fill="black" stroke="black" points="215.199,-244.249 218.638,-234.228 209.7,-239.917 215.199,-244.249"/>
<text text-anchor="middle" x="175" y="-310.9" font-family="Times Roman,serif" font-size="14.00">conv</text>
</g>
<!-- model:UML/EMF -->
<g id="node4" class="node"><title>model:UML/EMF</title>
<polygon fill="none" stroke="black" points="294,-432 172,-432 172,-396 294,-396 294,-432"/>
<text text-anchor="middle" x="233" y="-409.9" font-family="Times Roman,serif" font-size="14.00">model:UML/EMF</text>
</g>
<!-- model:UML/EMF&#45;&gt;ss -->
<g id="edge4" class="edge"><title>model:UML/EMF&#45;&gt;ss</title>
<path fill="none" stroke="black" d="M233,-395.728C233,-361.102 233,-285.71 233,-244.426"/>
<polygon fill="black" stroke="black" points="236.5,-244.228 233,-234.228 229.5,-244.228 236.5,-244.228"/>
<text text-anchor="middle" x="248" y="-310.9" font-family="Times Roman,serif" font-size="14.00">conv</text>
</g>
<!-- instance:UML/EMF -->
<g id="node6" class="node"><title>instance:UML/EMF</title>
<polygon fill="none" stroke="black" points="446,-432 312,-432 312,-396 446,-396 446,-432"/>
<text text-anchor="middle" x="379" y="-409.9" font-family="Times Roman,serif" font-size="14.00">instance:UML/EMF</text>
</g>
<!-- instance:UML/EMF&#45;&gt;ss -->
<g id="edge6" class="edge"><title>instance:UML/EMF&#45;&gt;ss</title>
<path fill="none" stroke="black" d="M365.526,-395.728C339.56,-360.513 282.501,-283.132 252.428,-242.347"/>
<polygon fill="black" stroke="black" points="255.193,-240.2 246.441,-234.228 249.559,-244.354 255.193,-240.2"/>
<text text-anchor="middle" x="327.5" y="-310.9" font-family="Times Roman,serif" font-size="14.00">dealg</text>
</g>
</g>
</svg>
