<?xml version="1.0" encoding="UTF-8" standalone="no"?>
<!DOCTYPE svg PUBLIC "-//W3C//DTD SVG 1.1//EN"
 "http://www.w3.org/Graphics/SVG/1.1/DTD/svg11.dtd">
<!-- Generated by graphviz version 2.22.2 (20090313.1817)
 -->
<!-- Title: umlMetamodel Pages: 1 -->
<svg width="1942pt" height="494pt"
 viewBox="0.00 0.00 1942.00 494.00" xmlns="http://www.w3.org/2000/svg" xmlns:xlink="http://www.w3.org/1999/xlink">
<g id="graph1" class="graph" transform="scale(1 1) rotate(0) translate(4 490)">
<title>umlMetamodel</title>
<polygon fill="white" stroke="white" points="-4,5 -4,-490 1939,-490 1939,5 -4,5"/>
<!-- StateMachine -->
<g id="node1" class="node"><title>StateMachine</title>
<ellipse fill="none" stroke="black" cx="743" cy="-468" rx="70.878" ry="18"/>
<text text-anchor="middle" x="743" y="-463.9" font-family="Times Roman,serif" font-size="14.00">StateMachine</text>
</g>
<!-- StateMachine&#45;&gt;StateMachine -->
<g id="edge6" class="edge"><title>StateMachine&#45;&gt;StateMachine</title>
<path fill="none" stroke="black" d="M806.6,-476.068C821.243,-475.373 832,-472.684 832,-468 832,-464.487 825.949,-462.096 816.747,-460.827"/>
<polygon fill="black" stroke="black" points="816.869,-457.324 806.6,-459.932 816.254,-464.297 816.869,-457.324"/>
<text text-anchor="middle" x="904.5" y="-463.9" font-family="Times Roman,serif" font-size="14.00">extendedStateMachine</text>
</g>
<!-- Region -->
<g id="node3" class="node"><title>Region</title>
<ellipse fill="none" stroke="black" cx="1340" cy="-378" rx="43.0827" ry="18"/>
<text text-anchor="middle" x="1340" y="-373.9" font-family="Times Roman,serif" font-size="14.00">Region</text>
</g>
<!-- StateMachine&#45;&gt;Region -->
<g id="edge2" class="edge"><title>StateMachine&#45;&gt;Region</title>
<path fill="none" stroke="black" d="M804.084,-458.791C922.119,-440.997 1179.53,-402.191 1289.05,-385.681"/>
<polygon fill="black" stroke="black" points="1289.81,-389.106 1299.17,-384.155 1288.76,-382.185 1289.81,-389.106"/>
<text text-anchor="middle" x="1115" y="-418.9" font-family="Times Roman,serif" font-size="14.00">region</text>
</g>
<!-- Pseudostate -->
<g id="node5" class="node"><title>Pseudostate</title>
<ellipse fill="none" stroke="black" cx="233" cy="-108" rx="66.2071" ry="18"/>
<text text-anchor="middle" x="233" y="-103.9" font-family="Times Roman,serif" font-size="14.00">Pseudostate</text>
</g>
<!-- StateMachine&#45;&gt;Pseudostate -->
<g id="edge4" class="edge"><title>StateMachine&#45;&gt;Pseudostate</title>
<path fill="none" stroke="black" d="M672.632,-465.111C509.44,-457.474 119,-433.411 119,-378 119,-378 119,-378 119,-198 119,-163.608 151.359,-140.316 181.597,-126.058"/>
<polygon fill="black" stroke="black" points="183.167,-129.19 190.874,-121.921 180.316,-122.797 183.167,-129.19"/>
<text text-anchor="middle" x="169.5" y="-283.9" font-family="Times Roman,serif" font-size="14.00">connectionPoint</text>
</g>
<!-- State -->
<g id="node8" class="node"><title>State</title>
<ellipse fill="none" stroke="black" cx="743" cy="-288" rx="34.0492" ry="18"/>
<text text-anchor="middle" x="743" y="-283.9" font-family="Times Roman,serif" font-size="14.00">State</text>
</g>
<!-- StateMachine&#45;&gt;State -->
<g id="edge8" class="edge"><title>StateMachine&#45;&gt;State</title>
<path fill="none" stroke="black" d="M722.621,-450.456C708.788,-437.12 691.669,-417.457 684,-396 678.615,-380.933 678.615,-375.067 684,-360 690.774,-341.045 704.923,-323.491 717.667,-310.461"/>
<polygon fill="black" stroke="black" points="720.247,-312.834 724.942,-303.336 715.349,-307.833 720.247,-312.834"/>
<text text-anchor="middle" x="739" y="-373.9" font-family="Times Roman,serif" font-size="14.00">submachineState</text>
</g>
<!-- Region&#45;&gt;StateMachine -->
<g id="edge72" class="edge"><title>Region&#45;&gt;StateMachine</title>
<path fill="none" stroke="black" d="M1305.91,-389.087C1266.24,-401.532 1198.58,-421.369 1139,-432 1030.65,-451.332 903.667,-460.547 823.282,-464.749"/>
<polygon fill="black" stroke="black" points="823.038,-461.257 813.229,-465.261 823.394,-468.248 823.038,-461.257"/>
<text text-anchor="middle" x="1259.5" y="-418.9" font-family="Times Roman,serif" font-size="14.00">stateMachine</text>
</g>
<!-- Region&#45;&gt;Region -->
<g id="edge76" class="edge"><title>Region&#45;&gt;Region</title>
<path fill="none" stroke="black" d="M1378.42,-386.249C1390.99,-386.207 1401,-383.457 1401,-378 1401,-374.163 1396.05,-371.664 1388.74,-370.504"/>
<polygon fill="black" stroke="black" points="1388.65,-366.988 1378.42,-369.751 1388.14,-373.97 1388.65,-366.988"/>
<text text-anchor="middle" x="1453.5" y="-373.9" font-family="Times Roman,serif" font-size="14.00">extendedRegion</text>
</g>
<!-- Region&#45;&gt;State -->
<g id="edge74" class="edge"><title>Region&#45;&gt;State</title>
<path fill="none" stroke="black" d="M1297.26,-375.481C1229.46,-371.095 1093.22,-360.686 979,-342 909.441,-330.62 829.744,-310.977 783.039,-298.781"/>
<polygon fill="black" stroke="black" points="783.87,-295.38 773.308,-296.222 782.09,-302.15 783.87,-295.38"/>
<text text-anchor="middle" x="994.5" y="-328.9" font-family="Times Roman,serif" font-size="14.00">state</text>
</g>
<!-- Classifier -->
<g id="node15" class="node"><title>Classifier</title>
<ellipse fill="none" stroke="black" cx="1454" cy="-108" rx="52.1162" ry="18"/>
<text text-anchor="middle" x="1454" y="-103.9" font-family="Times Roman,serif" font-size="14.00">Classifier</text>
</g>
<!-- Region&#45;&gt;Classifier -->
<g id="edge78" class="edge"><title>Region&#45;&gt;Classifier</title>
<path fill="none" stroke="black" d="M1382.53,-374.996C1446.56,-370.002 1564.34,-358.843 1603,-342 1675.6,-310.368 1712.56,-293.471 1729,-216 1750.42,-115.068 1615.4,-149.775 1515,-126 1510.95,-125.041 1506.77,-123.974 1502.59,-122.853"/>
<polygon fill="black" stroke="black" points="1503.45,-119.46 1492.88,-120.159 1501.58,-126.205 1503.45,-119.46"/>
<text text-anchor="middle" x="1783.5" y="-238.9" font-family="Times Roman,serif" font-size="14.00">redefinitionContext</text>
</g>
<!-- Transition -->
<g id="node25" class="node"><title>Transition</title>
<ellipse fill="none" stroke="black" cx="1526" cy="-198" rx="54.2008" ry="18"/>
<text text-anchor="middle" x="1526" y="-193.9" font-family="Times Roman,serif" font-size="14.00">Transition</text>
</g>
<!-- Region&#45;&gt;Transition -->
<g id="edge70" class="edge"><title>Region&#45;&gt;Transition</title>
<path fill="none" stroke="black" d="M1334.32,-360.14C1328.19,-337.135 1321.56,-296.913 1340,-270 1348.16,-258.092 1424.61,-231.148 1476.92,-213.809"/>
<polygon fill="black" stroke="black" points="1478.31,-217.037 1486.71,-210.583 1476.11,-210.389 1478.31,-217.037"/>
<text text-anchor="middle" x="1368" y="-283.9" font-family="Times Roman,serif" font-size="14.00">transition</text>
</g>
<!-- Vertex -->
<g id="node30" class="node"><title>Vertex</title>
<ellipse fill="none" stroke="black" cx="1547" cy="-288" rx="39.1069" ry="18"/>
<text text-anchor="middle" x="1547" y="-283.9" font-family="Times Roman,serif" font-size="14.00">Vertex</text>
</g>
<!-- Region&#45;&gt;Vertex -->
<g id="edge68" class="edge"><title>Region&#45;&gt;Vertex</title>
<path fill="none" stroke="black" d="M1382.18,-374.436C1429.86,-369.623 1503.64,-359.558 1525,-342 1533.01,-335.416 1538.13,-325.456 1541.39,-315.876"/>
<polygon fill="black" stroke="black" points="1544.78,-316.765 1544.16,-306.188 1538.05,-314.84 1544.78,-316.765"/>
<text text-anchor="middle" x="1568" y="-328.9" font-family="Times Roman,serif" font-size="14.00">subvertex</text>
</g>
<!-- Pseudostate&#45;&gt;StateMachine -->
<g id="edge58" class="edge"><title>Pseudostate&#45;&gt;StateMachine</title>
<path fill="none" stroke="black" d="M177.782,-117.933C108.881,-131.932 0,-160.056 0,-198 0,-378 0,-378 0,-378 0,-444.1 469.429,-461.982 662.027,-466.537"/>
<polygon fill="black" stroke="black" points="662.017,-470.037 672.095,-466.768 662.178,-463.039 662.017,-470.037"/>
<text text-anchor="middle" x="41.5" y="-283.9" font-family="Times Roman,serif" font-size="14.00">stateMachine</text>
</g>
<!-- Pseudostate&#45;&gt;State -->
<g id="edge60" class="edge"><title>Pseudostate&#45;&gt;State</title>
<path fill="none" stroke="black" d="M244.97,-126.023C264.495,-155.193 301.938,-210.102 311,-216 374.713,-257.47 602.469,-278.084 699.124,-285.122"/>
<polygon fill="black" stroke="black" points="698.929,-288.617 709.153,-285.837 699.427,-281.635 698.929,-288.617"/>
<text text-anchor="middle" x="326.5" y="-193.9" font-family="Times Roman,serif" font-size="14.00">state</text>
</g>
<!-- PseudostateKind -->
<g id="node41" class="node"><title>PseudostateKind</title>
<ellipse fill="none" stroke="black" cx="233" cy="-18" rx="86.8603" ry="18"/>
<text text-anchor="middle" x="233" y="-13.9" font-family="Times Roman,serif" font-size="14.00">PseudostateKind</text>
</g>
<!-- Pseudostate&#45;&gt;PseudostateKind -->
<g id="edge56" class="edge"><title>Pseudostate&#45;&gt;PseudostateKind</title>
<path fill="none" stroke="black" d="M233,-89.7872C233,-77.3443 233,-60.6053 233,-46.4211"/>
<polygon fill="black" stroke="black" points="236.5,-46.1857 233,-36.1858 229.5,-46.1858 236.5,-46.1857"/>
<text text-anchor="middle" x="246" y="-58.9" font-family="Times Roman,serif" font-size="14.00">kind</text>
</g>
<!-- State&#45;&gt;StateMachine -->
<g id="edge10" class="edge"><title>State&#45;&gt;StateMachine</title>
<path fill="none" stroke="black" d="M758.901,-304.097C771.153,-317.708 787.124,-338.397 794,-360 798.853,-375.246 798.853,-380.754 794,-396 788.55,-413.123 777.386,-429.671 766.89,-442.576"/>
<polygon fill="black" stroke="black" points="763.964,-440.614 760.155,-450.5 769.298,-445.147 763.964,-440.614"/>
<text text-anchor="middle" x="836.5" y="-373.9" font-family="Times Roman,serif" font-size="14.00">submachine</text>
</g>
<!-- State&#45;&gt;Region -->
<g id="edge16" class="edge"><title>State&#45;&gt;Region</title>
<path fill="none" stroke="black" d="M776.425,-292.09C827.636,-298.435 928.565,-311.253 1014,-324 1111.96,-338.615 1226.05,-358.076 1289.97,-369.201"/>
<polygon fill="black" stroke="black" points="1289.72,-372.709 1300.17,-370.979 1290.92,-365.813 1289.72,-372.709"/>
<text text-anchor="middle" x="1142" y="-328.9" font-family="Times Roman,serif" font-size="14.00">region</text>
</g>
<!-- State&#45;&gt;Pseudostate -->
<g id="edge28" class="edge"><title>State&#45;&gt;Pseudostate</title>
<path fill="none" stroke="black" d="M708.872,-286.363C617.465,-281.809 368.589,-268.25 288,-252 237.988,-241.915 208.888,-257.347 179,-216 159.912,-189.594 183.908,-155.441 205.708,-132.682"/>
<polygon fill="black" stroke="black" points="208.362,-134.977 212.952,-125.428 203.409,-130.031 208.362,-134.977"/>
<text text-anchor="middle" x="229.5" y="-193.9" font-family="Times Roman,serif" font-size="14.00">connectionPoint</text>
</g>
<!-- State&#45;&gt;State -->
<g id="edge14" class="edge"><title>State&#45;&gt;State</title>
<path fill="none" stroke="black" d="M773.445,-296.218C785.216,-296.583 795,-293.844 795,-288 795,-283.982 790.376,-281.432 783.66,-280.349"/>
<polygon fill="black" stroke="black" points="783.624,-276.842 773.445,-279.782 783.236,-283.831 783.624,-276.842"/>
<text text-anchor="middle" x="842" y="-283.9" font-family="Times Roman,serif" font-size="14.00">redefinedState</text>
</g>
<!-- ConnectionPointReference -->
<g id="node11" class="node"><title>ConnectionPointReference</title>
<ellipse fill="none" stroke="black" cx="481" cy="-198" rx="130.137" ry="18"/>
<text text-anchor="middle" x="481" y="-193.9" font-family="Times Roman,serif" font-size="14.00">ConnectionPointReference</text>
</g>
<!-- State&#45;&gt;ConnectionPointReference -->
<g id="edge12" class="edge"><title>State&#45;&gt;ConnectionPointReference</title>
<path fill="none" stroke="black" d="M709.246,-285.045C672.42,-280.955 612.275,-271.71 564,-252 545.507,-244.449 526.702,-232.628 511.679,-221.969"/>
<polygon fill="black" stroke="black" points="513.445,-218.925 503.301,-215.868 509.324,-224.584 513.445,-218.925"/>
<text text-anchor="middle" x="598.5" y="-238.9" font-family="Times Roman,serif" font-size="14.00">connection</text>
</g>
<!-- State&#45;&gt;Classifier -->
<g id="edge18" class="edge"><title>State&#45;&gt;Classifier</title>
<path fill="none" stroke="black" d="M777.127,-286.92C885.272,-283 1218.72,-266.964 1312,-216 1330.79,-205.736 1327.79,-193.984 1344,-180 1366.78,-160.343 1395.27,-141.837 1417.55,-128.51"/>
<polygon fill="black" stroke="black" points="1419.54,-131.402 1426.37,-123.307 1415.98,-125.372 1419.54,-131.402"/>
<text text-anchor="middle" x="1403.5" y="-193.9" font-family="Times Roman,serif" font-size="14.00">redefinitionContext</text>
</g>
<!-- Constraint -->
<g id="node17" class="node"><title>Constraint</title>
<ellipse fill="none" stroke="black" cx="1025" cy="-108" rx="55.0898" ry="18"/>
<text text-anchor="middle" x="1025" y="-103.9" font-family="Times Roman,serif" font-size="14.00">Constraint</text>
</g>
<!-- State&#45;&gt;Constraint -->
<g id="edge20" class="edge"><title>State&#45;&gt;Constraint</title>
<path fill="none" stroke="black" d="M776.222,-283.908C845.496,-274.769 1002.24,-250.736 1042,-216 1067.1,-194.068 1076.17,-174.621 1063,-144 1061.17,-139.753 1058.57,-135.772 1055.58,-132.119"/>
<polygon fill="black" stroke="black" points="1057.95,-129.533 1048.53,-124.671 1052.86,-134.342 1057.95,-129.533"/>
<text text-anchor="middle" x="1109.5" y="-193.9" font-family="Times Roman,serif" font-size="14.00">stateInvariant</text>
</g>
<!-- Behavior -->
<g id="node19" class="node"><title>Behavior</title>
<ellipse fill="none" stroke="black" cx="698" cy="-108" rx="50.0315" ry="18"/>
<text text-anchor="middle" x="698" y="-103.9" font-family="Times Roman,serif" font-size="14.00">Behavior</text>
</g>
<!-- State&#45;&gt;Behavior -->
<g id="edge22" class="edge"><title>State&#45;&gt;Behavior</title>
<path fill="none" stroke="black" d="M719.114,-275.067C699.292,-262.816 672.55,-242.379 661,-216 649.053,-188.713 663.886,-156.242 678.173,-134.078"/>
<polygon fill="black" stroke="black" points="681.247,-135.782 683.976,-125.545 675.459,-131.846 681.247,-135.782"/>
<text text-anchor="middle" x="676.5" y="-193.9" font-family="Times Roman,serif" font-size="14.00">entry</text>
</g>
<!-- State&#45;&gt;Behavior -->
<g id="edge24" class="edge"><title>State&#45;&gt;Behavior</title>
<path fill="none" stroke="black" d="M738.521,-270.083C730.657,-238.627 714.317,-173.267 704.967,-135.868"/>
<polygon fill="black" stroke="black" points="708.349,-134.964 702.528,-126.112 701.558,-136.662 708.349,-134.964"/>
<text text-anchor="middle" x="736" y="-193.9" font-family="Times Roman,serif" font-size="14.00">exit</text>
</g>
<!-- State&#45;&gt;Behavior -->
<g id="edge26" class="edge"><title>State&#45;&gt;Behavior</title>
<path fill="none" stroke="black" d="M748.166,-269.914C753.516,-248.046 759.828,-210.392 750,-180 744.343,-162.505 732.673,-145.685 721.819,-132.709"/>
<polygon fill="black" stroke="black" points="724.439,-130.388 715.228,-125.154 719.165,-134.99 724.439,-130.388"/>
<text text-anchor="middle" x="786.5" y="-193.9" font-family="Times Roman,serif" font-size="14.00">doActivity</text>
</g>
<!-- Trigger -->
<g id="node24" class="node"><title>Trigger</title>
<ellipse fill="none" stroke="black" cx="1242" cy="-108" rx="43.0827" ry="18"/>
<text text-anchor="middle" x="1242" y="-103.9" font-family="Times Roman,serif" font-size="14.00">Trigger</text>
</g>
<!-- State&#45;&gt;Trigger -->
<g id="edge30" class="edge"><title>State&#45;&gt;Trigger</title>
<path fill="none" stroke="black" d="M776.555,-285.037C862.773,-276.972 1089.85,-252.737 1155,-216 1188.43,-197.146 1213.97,-159.891 1228.47,-134.465"/>
<polygon fill="black" stroke="black" points="1231.55,-136.136 1233.31,-125.689 1225.42,-132.756 1231.55,-136.136"/>
<text text-anchor="middle" x="1252.5" y="-193.9" font-family="Times Roman,serif" font-size="14.00">deferrableTrigger</text>
</g>
<!-- ConnectionPointReference&#45;&gt;Pseudostate -->
<g id="edge62" class="edge"><title>ConnectionPointReference&#45;&gt;Pseudostate</title>
<path fill="none" stroke="black" d="M434.644,-181.177C391.281,-165.441 326.72,-142.011 282.398,-125.927"/>
<polygon fill="black" stroke="black" points="283.58,-122.632 272.985,-122.511 281.192,-129.212 283.58,-122.632"/>
<text text-anchor="middle" x="395.5" y="-148.9" font-family="Times Roman,serif" font-size="14.00">entry</text>
</g>
<!-- ConnectionPointReference&#45;&gt;Pseudostate -->
<g id="edge66" class="edge"><title>ConnectionPointReference&#45;&gt;Pseudostate</title>
<path fill="none" stroke="black" d="M463.284,-179.997C450.423,-167.979 432.009,-152.817 413,-144 379.857,-128.628 340.3,-119.804 306.722,-114.747"/>
<polygon fill="black" stroke="black" points="306.899,-111.237 296.506,-113.295 305.914,-118.167 306.899,-111.237"/>
<text text-anchor="middle" x="453" y="-148.9" font-family="Times Roman,serif" font-size="14.00">exit</text>
</g>
<!-- ConnectionPointReference&#45;&gt;State -->
<g id="edge64" class="edge"><title>ConnectionPointReference&#45;&gt;State</title>
<path fill="none" stroke="black" d="M481.202,-216.184C482.354,-228.125 485.926,-243.123 496,-252 510.969,-265.189 632.209,-278.031 699.087,-284.201"/>
<polygon fill="black" stroke="black" points="699.053,-287.712 709.329,-285.133 699.687,-280.741 699.053,-287.712"/>
<text text-anchor="middle" x="511.5" y="-238.9" font-family="Times Roman,serif" font-size="14.00">state</text>
</g>
<!-- Transition&#45;&gt;Region -->
<g id="edge34" class="edge"><title>Transition&#45;&gt;Region</title>
<path fill="none" stroke="black" d="M1492.5,-212.342C1480.93,-218.147 1468.3,-225.499 1458,-234 1426.3,-260.149 1426.04,-274.215 1400,-306 1387.07,-321.782 1372.41,-339.377 1360.82,-353.223"/>
<polygon fill="black" stroke="black" points="1358.13,-350.988 1354.39,-360.9 1363.49,-355.484 1358.13,-350.988"/>
<text text-anchor="middle" x="1454" y="-283.9" font-family="Times Roman,serif" font-size="14.00">container</text>
</g>
<!-- Transition&#45;&gt;Classifier -->
<g id="edge44" class="edge"><title>Transition&#45;&gt;Classifier</title>
<path fill="none" stroke="black" d="M1483.55,-186.847C1471.24,-181.431 1459.2,-173.507 1452,-162 1447.24,-154.397 1446.32,-144.943 1447.03,-136.079"/>
<polygon fill="black" stroke="black" points="1450.5,-136.492 1448.48,-126.093 1443.58,-135.487 1450.5,-136.492"/>
<text text-anchor="middle" x="1511.5" y="-148.9" font-family="Times Roman,serif" font-size="14.00">redefinitionContext</text>
</g>
<!-- Transition&#45;&gt;Constraint -->
<g id="edge42" class="edge"><title>Transition&#45;&gt;Constraint</title>
<path fill="none" stroke="black" d="M1484.86,-186.125C1476.05,-183.859 1466.76,-181.676 1458,-180 1392.05,-167.378 1374.35,-172.299 1308,-162 1228.97,-149.733 1138.26,-131.723 1081.29,-119.93"/>
<polygon fill="black" stroke="black" points="1081.9,-116.483 1071.4,-117.875 1080.48,-123.337 1081.9,-116.483"/>
<text text-anchor="middle" x="1326" y="-148.9" font-family="Times Roman,serif" font-size="14.00">guard</text>
</g>
<!-- Transition&#45;&gt;Behavior -->
<g id="edge46" class="edge"><title>Transition&#45;&gt;Behavior</title>
<path fill="none" stroke="black" d="M1485.65,-185.92C1476.62,-183.611 1467.04,-181.461 1458,-180 1329.64,-159.263 1295.08,-177.657 1166,-162 1121.6,-156.615 1111.41,-149.306 1067,-144 929.965,-127.626 892.852,-150.308 757,-126 752.79,-125.247 748.457,-124.29 744.143,-123.213"/>
<polygon fill="black" stroke="black" points="744.743,-119.749 734.176,-120.516 742.915,-126.506 744.743,-119.749"/>
<text text-anchor="middle" x="1184.5" y="-148.9" font-family="Times Roman,serif" font-size="14.00">effect</text>
</g>
<!-- Transition&#45;&gt;Trigger -->
<g id="edge48" class="edge"><title>Transition&#45;&gt;Trigger</title>
<path fill="none" stroke="black" d="M1484.19,-186.488C1459.83,-179.65 1428.58,-170.65 1401,-162 1361.3,-149.548 1316.44,-134.194 1284.52,-123.046"/>
<polygon fill="black" stroke="black" points="1285.64,-119.731 1275.05,-119.729 1283.33,-126.337 1285.64,-119.731"/>
<text text-anchor="middle" x="1421.5" y="-148.9" font-family="Times Roman,serif" font-size="14.00">trigger</text>
</g>
<!-- Transition&#45;&gt;Transition -->
<g id="edge40" class="edge"><title>Transition&#45;&gt;Transition</title>
<path fill="none" stroke="black" d="M1574.12,-206.209C1587.63,-205.85 1598,-203.113 1598,-198 1598,-194.285 1592.52,-191.824 1584.35,-190.619"/>
<polygon fill="black" stroke="black" points="1584.37,-187.109 1574.12,-189.791 1583.8,-194.086 1584.37,-187.109"/>
<text text-anchor="middle" x="1659" y="-193.9" font-family="Times Roman,serif" font-size="14.00">redefinedTransition</text>
</g>
<!-- TransitionKind -->
<g id="node27" class="node"><title>TransitionKind</title>
<ellipse fill="none" stroke="black" cx="1597" cy="-108" rx="73.1565" ry="18"/>
<text text-anchor="middle" x="1597" y="-103.9" font-family="Times Roman,serif" font-size="14.00">TransitionKind</text>
</g>
<!-- Transition&#45;&gt;TransitionKind -->
<g id="edge32" class="edge"><title>Transition&#45;&gt;TransitionKind</title>
<path fill="none" stroke="black" d="M1552.96,-182.219C1560.85,-176.612 1568.97,-169.743 1575,-162 1581.01,-154.284 1585.62,-144.699 1589.03,-135.756"/>
<polygon fill="black" stroke="black" points="1592.42,-136.659 1592.38,-126.064 1585.8,-134.374 1592.42,-136.659"/>
<text text-anchor="middle" x="1598" y="-148.9" font-family="Times Roman,serif" font-size="14.00">kind</text>
</g>
<!-- Transition&#45;&gt;Vertex -->
<g id="edge36" class="edge"><title>Transition&#45;&gt;Vertex</title>
<path fill="none" stroke="black" d="M1575.86,-204.984C1609.5,-210.836 1649.59,-220.428 1660,-234 1680.57,-260.825 1634.48,-274.984 1595.11,-281.968"/>
<polygon fill="black" stroke="black" points="1594.33,-278.55 1585.03,-283.632 1595.47,-285.456 1594.33,-278.55"/>
<text text-anchor="middle" x="1687" y="-238.9" font-family="Times Roman,serif" font-size="14.00">source</text>
</g>
<!-- Transition&#45;&gt;Vertex -->
<g id="edge38" class="edge"><title>Transition&#45;&gt;Vertex</title>
<path fill="none" stroke="black" d="M1491.55,-212.155C1472.94,-221.987 1455.69,-236.136 1466,-252 1470.85,-259.458 1487.83,-267.521 1505,-274.121"/>
<polygon fill="black" stroke="black" points="1503.89,-277.443 1514.49,-277.625 1506.32,-270.876 1503.89,-277.443"/>
<text text-anchor="middle" x="1484" y="-238.9" font-family="Times Roman,serif" font-size="14.00">target</text>
</g>
<!-- Vertex&#45;&gt;Region -->
<g id="edge50" class="edge"><title>Vertex&#45;&gt;Region</title>
<path fill="none" stroke="black" d="M1516.88,-299.525C1501.51,-305.907 1482.77,-314.471 1467,-324 1455.89,-330.712 1455.4,-335.792 1444,-342 1426.08,-351.759 1405.01,-359.641 1386.54,-365.514"/>
<polygon fill="black" stroke="black" points="1385.39,-362.204 1376.86,-368.485 1387.45,-368.895 1385.39,-362.204"/>
<text text-anchor="middle" x="1496" y="-328.9" font-family="Times Roman,serif" font-size="14.00">container</text>
</g>
<!-- Vertex&#45;&gt;Transition -->
<g id="edge52" class="edge"><title>Vertex&#45;&gt;Transition</title>
<path fill="none" stroke="black" d="M1567.66,-272.319C1578.95,-261.743 1589.28,-247.336 1582,-234 1578.65,-227.866 1573.76,-222.621 1568.24,-218.187"/>
<polygon fill="black" stroke="black" points="1570.01,-215.151 1559.81,-212.263 1565.98,-220.878 1570.01,-215.151"/>
<text text-anchor="middle" x="1611.5" y="-238.9" font-family="Times Roman,serif" font-size="14.00">outgoing</text>
</g>
<!-- Vertex&#45;&gt;Transition -->
<g id="edge54" class="edge"><title>Vertex&#45;&gt;Transition</title>
<path fill="none" stroke="black" d="M1531.62,-271.281C1527.33,-265.581 1523.23,-258.895 1521,-252 1518.39,-243.937 1518.24,-234.87 1519.13,-226.5"/>
<polygon fill="black" stroke="black" points="1522.62,-226.822 1520.72,-216.4 1515.71,-225.735 1522.62,-226.822"/>
<text text-anchor="middle" x="1549.5" y="-238.9" font-family="Times Roman,serif" font-size="14.00">incoming</text>
</g>
<!-- ProtocolConformance -->
<g id="node53" class="node"><title>ProtocolConformance</title>
<ellipse fill="none" stroke="black" cx="1579" cy="-468" rx="107.902" ry="18"/>
<text text-anchor="middle" x="1579" y="-463.9" font-family="Times Roman,serif" font-size="14.00">ProtocolConformance</text>
</g>
<!-- ProtocolStateMachine -->
<g id="node55" class="node"><title>ProtocolStateMachine</title>
<ellipse fill="none" stroke="black" cx="1702" cy="-378" rx="107.206" ry="18"/>
<text text-anchor="middle" x="1702" y="-373.9" font-family="Times Roman,serif" font-size="14.00">ProtocolStateMachine</text>
</g>
<!-- ProtocolConformance&#45;&gt;ProtocolStateMachine -->
<g id="edge80" class="edge"><title>ProtocolConformance&#45;&gt;ProtocolStateMachine</title>
<path fill="none" stroke="black" d="M1495.59,-456.517C1462.66,-448.51 1436.57,-435.312 1455,-414 1464.62,-402.877 1533.48,-393.428 1596.05,-387.006"/>
<polygon fill="black" stroke="black" points="1596.43,-390.485 1606.03,-386.001 1595.73,-383.52 1596.43,-390.485"/>
<text text-anchor="middle" x="1506" y="-418.9" font-family="Times Roman,serif" font-size="14.00">specificMachine</text>
</g>
<!-- ProtocolConformance&#45;&gt;ProtocolStateMachine -->
<g id="edge82" class="edge"><title>ProtocolConformance&#45;&gt;ProtocolStateMachine</title>
<path fill="none" stroke="black" d="M1574.32,-449.96C1572.47,-438.534 1572.33,-424.068 1580,-414 1585.9,-406.262 1602.19,-399.585 1621.02,-394.157"/>
<polygon fill="black" stroke="black" points="1622.01,-397.514 1630.74,-391.513 1620.18,-390.759 1622.01,-397.514"/>
<text text-anchor="middle" x="1630" y="-418.9" font-family="Times Roman,serif" font-size="14.00">generalMachine</text>
</g>
<!-- ProtocolStateMachine&#45;&gt;ProtocolConformance -->
<g id="edge94" class="edge"><title>ProtocolStateMachine&#45;&gt;ProtocolConformance</title>
<path fill="none" stroke="black" d="M1698.59,-396.199C1695.54,-407.838 1689.95,-422.484 1680,-432 1672.51,-439.167 1663.49,-444.919 1653.98,-449.533"/>
<polygon fill="black" stroke="black" points="1652.46,-446.376 1644.73,-453.618 1655.29,-452.779 1652.46,-446.376"/>
<text text-anchor="middle" x="1732.5" y="-418.9" font-family="Times Roman,serif" font-size="14.00">conformance</text>
</g>
<!-- Interface -->
<g id="node57" class="node"><title>Interface</title>
<ellipse fill="none" stroke="black" cx="1808" cy="-468" rx="50.0315" ry="18"/>
<text text-anchor="middle" x="1808" y="-463.9" font-family="Times Roman,serif" font-size="14.00">Interface</text>
</g>
<!-- Interface&#45;&gt;ProtocolStateMachine -->
<g id="edge84" class="edge"><title>Interface&#45;&gt;ProtocolStateMachine</title>
<path fill="none" stroke="black" d="M1804.39,-450.003C1801.25,-438.449 1795.65,-423.822 1786,-414 1779.86,-407.749 1772.46,-402.52 1764.63,-398.163"/>
<polygon fill="black" stroke="black" points="1766.16,-395.011 1755.65,-393.606 1762.99,-401.253 1766.16,-395.011"/>
<text text-anchor="middle" x="1823" y="-418.9" font-family="Times Roman,serif" font-size="14.00">protocol</text>
</g>
<!-- Port -->
<g id="node59" class="node"><title>Port</title>
<ellipse fill="none" stroke="black" cx="1905" cy="-468" rx="29.1851" ry="18"/>
<text text-anchor="middle" x="1905" y="-463.9" font-family="Times Roman,serif" font-size="14.00">Port</text>
</g>
<!-- Port&#45;&gt;ProtocolStateMachine -->
<g id="edge86" class="edge"><title>Port&#45;&gt;ProtocolStateMachine</title>
<path fill="none" stroke="black" d="M1893.19,-451.376C1883.69,-439.222 1869.27,-423.299 1853,-414 1835.69,-404.106 1815.76,-396.923 1796.19,-391.712"/>
<polygon fill="black" stroke="black" points="1796.86,-388.273 1786.31,-389.236 1795.16,-395.063 1796.86,-388.273"/>
<text text-anchor="middle" x="1901" y="-418.9" font-family="Times Roman,serif" font-size="14.00">protocol</text>
</g>
<!-- ProtocolTransition -->
<g id="node61" class="node"><title>ProtocolTransition</title>
<ellipse fill="none" stroke="black" cx="942" cy="-198" rx="91.0296" ry="18"/>
<text text-anchor="middle" x="942" y="-193.9" font-family="Times Roman,serif" font-size="14.00">ProtocolTransition</text>
</g>
<!-- ProtocolTransition&#45;&gt;Constraint -->
<g id="edge88" class="edge"><title>ProtocolTransition&#45;&gt;Constraint</title>
<path fill="none" stroke="black" d="M950.653,-180.002C956.545,-168.872 965.064,-154.715 975,-144 979.642,-138.994 985.078,-134.246 990.622,-129.939"/>
<polygon fill="black" stroke="black" points="992.762,-132.71 998.744,-123.965 988.615,-127.071 992.762,-132.71"/>
<text text-anchor="middle" x="1019" y="-148.9" font-family="Times Roman,serif" font-size="14.00">postCondition</text>
</g>
<!-- ProtocolTransition&#45;&gt;Constraint -->
<g id="edge92" class="edge"><title>ProtocolTransition&#45;&gt;Constraint</title>
<path fill="none" stroke="black" d="M900.349,-181.843C881.394,-172.054 865.487,-158.649 877,-144 887.819,-130.233 927.049,-121.076 962.401,-115.443"/>
<polygon fill="black" stroke="black" points="963.364,-118.838 972.726,-113.877 962.314,-111.917 963.364,-118.838"/>
<text text-anchor="middle" x="917.5" y="-148.9" font-family="Times Roman,serif" font-size="14.00">preCondition</text>
</g>
<!-- Operation -->
<g id="node64" class="node"><title>Operation</title>
<ellipse fill="none" stroke="black" cx="820" cy="-108" rx="54.2008" ry="18"/>
<text text-anchor="middle" x="820" y="-103.9" font-family="Times Roman,serif" font-size="14.00">Operation</text>
</g>
<!-- ProtocolTransition&#45;&gt;Operation -->
<g id="edge90" class="edge"><title>ProtocolTransition&#45;&gt;Operation</title>
<path fill="none" stroke="black" d="M874.773,-185.784C850.079,-179.817 826.338,-171.793 819,-162 813.544,-154.719 812.368,-145.199 813.011,-136.185"/>
<polygon fill="black" stroke="black" points="816.517,-136.39 814.454,-125.998 809.586,-135.408 816.517,-136.39"/>
<text text-anchor="middle" x="844.5" y="-148.9" font-family="Times Roman,serif" font-size="14.00">referred</text>
</g>
</g>
</svg>
