<?xml version="1.0" encoding="UTF-8" standalone="no"?>
<!DOCTYPE svg PUBLIC "-//W3C//DTD SVG 1.1//EN"
 "http://www.w3.org/Graphics/SVG/1.1/DTD/svg11.dtd">
<!-- Generated by graphviz version 2.22.2 (20090313.1817)
 -->
<!-- Title: umlMetamodel Pages: 1 -->
<svg width="3008pt" height="422pt"
 viewBox="0.00 0.00 3008.25 422.00" xmlns="http://www.w3.org/2000/svg" xmlns:xlink="http://www.w3.org/1999/xlink">
<g id="graph1" class="graph" transform="scale(1 1) rotate(0) translate(4 418)">
<title>umlMetamodel</title>
<polygon fill="white" stroke="white" points="-4,5 -4,-418 3005.25,-418 3005.25,5 -4,5"/>
<!-- AbstractBallCarrier -->
<g id="node1" class="node"><title>AbstractBallCarrier</title>
<ellipse fill="none" stroke="red" cx="620.248" cy="-306" rx="93.8091" ry="18"/>
<text text-anchor="middle" x="620.248" y="-301.9" font-family="Times Roman,serif" font-size="14.00" fill="red">AbstractBallCarrier</text>
</g>
<!-- Class -->
<g id="node3" class="node"><title>Class</title>
<ellipse fill="none" stroke="red" cx="980.248" cy="-198" rx="36.1339" ry="18"/>
<text text-anchor="middle" x="980.248" y="-193.9" font-family="Times Roman,serif" font-size="14.00" fill="red">Class</text>
</g>
<!-- AbstractBallCarrier&#45;&gt;Class -->
<g id="edge2" class="edge"><title>AbstractBallCarrier&#45;&gt;Class</title>
<path fill="none" stroke="grey" d="M698.128,-295.915C743.391,-289.236 795.483,-279.906 816.248,-270 838.438,-259.414 836.646,-245.739 858.248,-234 858.308,-233.968 904.041,-220.476 939.489,-210.021"/>
<polygon fill="grey" stroke="grey" points="940.567,-213.352 949.168,-207.166 938.586,-206.638 940.567,-213.352"/>
<text text-anchor="middle" x="859.748" y="-247.9" font-family="Times Roman,serif" font-size="14.00">i</text>
</g>
<!-- MyAttr -->
<g id="node54" class="node"><title>MyAttr</title>
<ellipse fill="none" stroke="red" cx="765.248" cy="-198" rx="38.9134" ry="18"/>
<text text-anchor="middle" x="765.248" y="-193.9" font-family="Times Roman,serif" font-size="14.00" fill="red">MyAttr</text>
</g>
<!-- AbstractBallCarrier&#45;&gt;MyAttr -->
<g id="edge50" class="edge"><title>AbstractBallCarrier&#45;&gt;MyAttr</title>
<path fill="none" stroke="black" d="M604.803,-288.212C593.03,-272.427 580.912,-249.525 594.248,-234 611.533,-213.879 686.479,-222.289 712.248,-216 716.39,-214.989 720.669,-213.796 724.917,-212.513"/>
<polygon fill="black" stroke="black" points="726.225,-215.769 734.691,-209.399 724.1,-209.1 726.225,-215.769"/>
<text text-anchor="middle" x="641.748" y="-247.9" font-family="Times Roman,serif" font-size="14.00">ownedAttribute</text>
</g>
<!-- myOperation -->
<g id="node58" class="node"><title>myOperation</title>
<ellipse fill="none" stroke="red" cx="423.248" cy="-198" rx="66.9043" ry="18"/>
<text text-anchor="middle" x="423.248" y="-193.9" font-family="Times Roman,serif" font-size="14.00" fill="red">myOperation</text>
</g>
<!-- AbstractBallCarrier&#45;&gt;myOperation -->
<g id="edge54" class="edge"><title>AbstractBallCarrier&#45;&gt;myOperation</title>
<path fill="none" stroke="black" d="M533.365,-299.106C465.222,-292.792 380.115,-282.537 369.248,-270 358.768,-257.91 361.698,-248.107 369.248,-234 372.109,-228.654 376.153,-223.965 380.757,-219.893"/>
<polygon fill="black" stroke="black" points="383.128,-222.485 388.923,-213.615 378.862,-216.935 383.128,-222.485"/>
<text text-anchor="middle" x="421.248" y="-247.9" font-family="Times Roman,serif" font-size="14.00">ownedOperation</text>
</g>
<!-- TennisBallCarrier -->
<g id="node4" class="node"><title>TennisBallCarrier</title>
<ellipse fill="none" stroke="red" cx="558.248" cy="-396" rx="86.8603" ry="18"/>
<text text-anchor="middle" x="558.248" y="-391.9" font-family="Times Roman,serif" font-size="14.00" fill="red">TennisBallCarrier</text>
</g>
<!-- TennisBallCarrier&#45;&gt;AbstractBallCarrier -->
<g id="edge60" class="edge"><title>TennisBallCarrier&#45;&gt;AbstractBallCarrier</title>
<path fill="none" stroke="black" d="M579.9,-378.274C585.699,-372.825 591.632,-366.53 596.248,-360 601.885,-352.026 606.647,-342.517 610.407,-333.717"/>
<polygon fill="black" stroke="black" points="613.749,-334.786 614.219,-324.201 607.251,-332.183 613.749,-334.786"/>
<text text-anchor="middle" x="649.748" y="-346.9" font-family="Times Roman,serif" font-size="14.00">generalization</text>
</g>
<!-- TennisBallCarrier&#45;&gt;Class -->
<g id="edge4" class="edge"><title>TennisBallCarrier&#45;&gt;Class</title>
<path fill="none" stroke="grey" d="M638.5,-389.042C738.292,-379.086 901.572,-358.111 951.248,-324 986.369,-299.883 986.604,-276.539 984.248,-234 984.113,-231.563 983.927,-229.038 983.709,-226.506"/>
<polygon fill="grey" stroke="grey" points="987.163,-225.879 982.676,-216.281 980.199,-226.583 987.163,-225.879"/>
<text text-anchor="middle" x="982.748" y="-301.9" font-family="Times Roman,serif" font-size="14.00">i</text>
</g>
<!-- MyAttr2 -->
<g id="node65" class="node"><title>MyAttr2</title>
<ellipse fill="none" stroke="red" cx="526.248" cy="-252" rx="43.9728" ry="18"/>
<text text-anchor="middle" x="526.248" y="-247.9" font-family="Times Roman,serif" font-size="14.00" fill="red">MyAttr2</text>
</g>
<!-- TennisBallCarrier&#45;&gt;MyAttr2 -->
<g id="edge62" class="edge"><title>TennisBallCarrier&#45;&gt;MyAttr2</title>
<path fill="none" stroke="black" d="M517.684,-380.07C509.525,-374.925 502.004,-368.329 497.248,-360 482.611,-334.365 495.592,-301.082 508.547,-278.28"/>
<polygon fill="black" stroke="black" points="511.673,-279.872 513.828,-269.499 505.674,-276.264 511.673,-279.872"/>
<text text-anchor="middle" x="544.748" y="-346.9" font-family="Times Roman,serif" font-size="14.00">ownedAttribute</text>
</g>
<!-- myOperation2 -->
<g id="node68" class="node"><title>myOperation2</title>
<ellipse fill="none" stroke="red" cx="231.248" cy="-306" rx="72.9626" ry="18"/>
<text text-anchor="middle" x="231.248" y="-301.9" font-family="Times Roman,serif" font-size="14.00" fill="red">myOperation2</text>
</g>
<!-- TennisBallCarrier&#45;&gt;myOperation2 -->
<g id="edge66" class="edge"><title>TennisBallCarrier&#45;&gt;myOperation2</title>
<path fill="none" stroke="black" d="M487.789,-385.348C452.717,-379.294 409.881,-370.759 372.248,-360 339.558,-350.654 303.797,-336.916 276.47,-325.636"/>
<polygon fill="black" stroke="black" points="277.751,-322.378 267.174,-321.76 275.057,-328.839 277.751,-322.378"/>
<text text-anchor="middle" x="424.248" y="-346.9" font-family="Times Roman,serif" font-size="14.00">ownedOperation</text>
</g>
<!-- MyTennisClass -->
<g id="node6" class="node"><title>MyTennisClass</title>
<ellipse fill="none" stroke="red" cx="864.248" cy="-306" rx="78.0216" ry="18"/>
<text text-anchor="middle" x="864.248" y="-301.9" font-family="Times Roman,serif" font-size="14.00" fill="red">MyTennisClass</text>
</g>
<!-- MyTennisClass&#45;&gt;Class -->
<g id="edge6" class="edge"><title>MyTennisClass&#45;&gt;Class</title>
<path fill="none" stroke="grey" d="M922.847,-293.826C936.671,-288.51 950.27,-280.895 960.248,-270 971.106,-258.144 976.139,-240.895 978.441,-226.252"/>
<polygon fill="grey" stroke="grey" points="981.935,-226.517 979.679,-216.165 974.987,-225.664 981.935,-226.517"/>
<text text-anchor="middle" x="978.748" y="-247.9" font-family="Times Roman,serif" font-size="14.00">i</text>
</g>
<!-- MyTennisClass&#45;&gt;myOperation -->
<g id="edge76" class="edge"><title>MyTennisClass&#45;&gt;myOperation</title>
<path fill="none" stroke="black" d="M798.066,-296.358C762.262,-290.061 722.51,-280.977 708.248,-270 693.911,-258.965 704.079,-244.362 689.248,-234 659.498,-213.214 567.484,-204.395 499.983,-200.675"/>
<polygon fill="black" stroke="black" points="499.962,-197.17 489.793,-200.142 499.596,-204.16 499.962,-197.17"/>
<text text-anchor="middle" x="760.248" y="-247.9" font-family="Times Roman,serif" font-size="14.00">ownedOperation</text>
</g>
<!-- MyAttr1 -->
<g id="node73" class="node"><title>MyAttr1</title>
<ellipse fill="none" stroke="red" cx="866.248" cy="-198" rx="43.9728" ry="18"/>
<text text-anchor="middle" x="866.248" y="-193.9" font-family="Times Roman,serif" font-size="14.00" fill="red">MyAttr1</text>
</g>
<!-- MyTennisClass&#45;&gt;MyAttr1 -->
<g id="edge72" class="edge"><title>MyTennisClass&#45;&gt;MyAttr1</title>
<path fill="none" stroke="black" d="M864.429,-287.949C864.592,-273.386 864.865,-252.373 865.248,-234 865.299,-231.574 865.357,-229.056 865.419,-226.53"/>
<polygon fill="black" stroke="black" points="868.924,-226.402 865.69,-216.313 861.926,-226.217 868.924,-226.402"/>
<text text-anchor="middle" x="912.748" y="-247.9" font-family="Times Roman,serif" font-size="14.00">ownedAttribute</text>
</g>
<!-- packagedElement_Zff -->
<g id="node8" class="node"><title>packagedElement_Zff</title>
<ellipse fill="none" stroke="red" cx="1510.25" cy="-396" rx="109.097" ry="18"/>
<text text-anchor="middle" x="1510.25" y="-391.9" font-family="Times Roman,serif" font-size="14.00" fill="red">packagedElement_Zff</text>
</g>
<!-- Association -->
<g id="node10" class="node"><title>Association</title>
<ellipse fill="none" stroke="red" cx="1665.25" cy="-306" rx="62.0391" ry="18"/>
<text text-anchor="middle" x="1665.25" y="-301.9" font-family="Times Roman,serif" font-size="14.00" fill="red">Association</text>
</g>
<!-- packagedElement_Zff&#45;&gt;Association -->
<g id="edge8" class="edge"><title>packagedElement_Zff&#45;&gt;Association</title>
<path fill="none" stroke="grey" d="M1546.56,-378.842C1558.11,-373.118 1570.85,-366.53 1582.25,-360 1599.21,-350.285 1617.47,-338.549 1632.54,-328.503"/>
<polygon fill="grey" stroke="grey" points="1634.66,-331.295 1641.01,-322.811 1630.75,-325.485 1634.66,-331.295"/>
<text text-anchor="middle" x="1610.75" y="-346.9" font-family="Times Roman,serif" font-size="14.00">i</text>
</g>
<!-- is managed by -->
<g id="node80" class="node"><title>is managed by</title>
<ellipse fill="none" stroke="red" cx="1510.25" cy="-306" rx="75.0473" ry="18"/>
<text text-anchor="middle" x="1510.25" y="-301.9" font-family="Times Roman,serif" font-size="14.00" fill="red">is managed by</text>
</g>
<!-- packagedElement_Zff&#45;&gt;is managed by -->
<g id="edge82" class="edge"><title>packagedElement_Zff&#45;&gt;is managed by</title>
<path fill="none" stroke="black" d="M1510.25,-377.787C1510.25,-365.344 1510.25,-348.605 1510.25,-334.421"/>
<polygon fill="black" stroke="black" points="1513.75,-334.186 1510.25,-324.186 1506.75,-334.186 1513.75,-334.186"/>
<text text-anchor="middle" x="1544.25" y="-346.9" font-family="Times Roman,serif" font-size="14.00">ownedEnd</text>
</g>
<!-- manages -->
<g id="node84" class="node"><title>manages</title>
<ellipse fill="none" stroke="red" cx="1365.25" cy="-306" rx="52.1162" ry="18"/>
<text text-anchor="middle" x="1365.25" y="-301.9" font-family="Times Roman,serif" font-size="14.00" fill="red">manages</text>
</g>
<!-- packagedElement_Zff&#45;&gt;manages -->
<g id="edge88" class="edge"><title>packagedElement_Zff&#45;&gt;manages</title>
<path fill="none" stroke="black" d="M1472.95,-378.884C1461.59,-373.264 1449.21,-366.723 1438.25,-360 1423.04,-350.668 1407,-339.03 1393.85,-328.95"/>
<polygon fill="black" stroke="black" points="1395.71,-325.96 1385.66,-322.591 1391.41,-331.489 1395.71,-325.96"/>
<text text-anchor="middle" x="1472.25" y="-346.9" font-family="Times Roman,serif" font-size="14.00">ownedEnd</text>
</g>
<!-- 1 -->
<g id="node11" class="node"><title>1</title>
<ellipse fill="none" stroke="red" cx="1624.25" cy="-198" rx="27" ry="18"/>
<text text-anchor="middle" x="1624.25" y="-193.9" font-family="Times Roman,serif" font-size="14.00" fill="red">1</text>
</g>
<!-- LiteralUnlimitedNatural -->
<g id="node13" class="node"><title>LiteralUnlimitedNatural</title>
<ellipse fill="none" stroke="red" cx="1521.25" cy="-108" rx="107.902" ry="18"/>
<text text-anchor="middle" x="1521.25" y="-103.9" font-family="Times Roman,serif" font-size="14.00" fill="red">LiteralUnlimitedNatural</text>
</g>
<!-- 1&#45;&gt;LiteralUnlimitedNatural -->
<g id="edge26" class="edge"><title>1&#45;&gt;LiteralUnlimitedNatural</title>
<path fill="none" stroke="grey" d="M1597.48,-195.428C1575.35,-191.801 1544.95,-183.06 1528.25,-162 1522.55,-154.813 1520.16,-145.316 1519.4,-136.293"/>
<polygon fill="grey" stroke="grey" points="1522.89,-135.996 1519.15,-126.086 1515.9,-136.169 1522.89,-135.996"/>
<text text-anchor="middle" x="1529.75" y="-148.9" font-family="Times Roman,serif" font-size="14.00">i</text>
</g>
<!-- 1&#45;&gt;LiteralUnlimitedNatural -->
<g id="edge30" class="edge"><title>1&#45;&gt;LiteralUnlimitedNatural</title>
<path fill="none" stroke="grey" d="M1600.76,-188.815C1587.03,-182.652 1569.95,-173.549 1557.25,-162 1548.78,-154.303 1541.37,-144.215 1535.5,-134.845"/>
<polygon fill="grey" stroke="grey" points="1538.48,-133.002 1530.37,-126.182 1532.46,-136.57 1538.48,-133.002"/>
<text text-anchor="middle" x="1558.75" y="-148.9" font-family="Times Roman,serif" font-size="14.00">i</text>
</g>
<!-- 1&#45;&gt;LiteralUnlimitedNatural -->
<g id="edge10" class="edge"><title>1&#45;&gt;LiteralUnlimitedNatural</title>
<path fill="none" stroke="grey" d="M1607.7,-183.54C1591.98,-169.801 1568.02,-148.87 1549.31,-132.523"/>
<polygon fill="grey" stroke="grey" points="1551.49,-129.776 1541.66,-125.832 1546.88,-135.047 1551.49,-129.776"/>
<text text-anchor="middle" x="1583.75" y="-148.9" font-family="Times Roman,serif" font-size="14.00">i</text>
</g>
<!-- 1&#45;&gt;LiteralUnlimitedNatural -->
<g id="edge14" class="edge"><title>1&#45;&gt;LiteralUnlimitedNatural</title>
<path fill="none" stroke="grey" d="M1613.9,-181.014C1606.38,-169.608 1595.42,-154.757 1583.25,-144 1577.73,-139.127 1571.46,-134.584 1565.07,-130.48"/>
<polygon fill="grey" stroke="grey" points="1566.71,-127.379 1556.35,-125.164 1563.06,-133.357 1566.71,-127.379"/>
<text text-anchor="middle" x="1601.75" y="-148.9" font-family="Times Roman,serif" font-size="14.00">i</text>
</g>
<!-- LiteralInteger -->
<g id="node15" class="node"><title>LiteralInteger</title>
<ellipse fill="none" stroke="red" cx="1716.25" cy="-108" rx="68.7933" ry="18"/>
<text text-anchor="middle" x="1716.25" y="-103.9" font-family="Times Roman,serif" font-size="14.00" fill="red">LiteralInteger</text>
</g>
<!-- 1&#45;&gt;LiteralInteger -->
<g id="edge28" class="edge"><title>1&#45;&gt;LiteralInteger</title>
<path fill="none" stroke="grey" d="M1625.45,-179.933C1627.06,-168.496 1630.76,-154.028 1639.25,-144 1645.4,-136.726 1653.35,-130.831 1661.8,-126.082"/>
<polygon fill="grey" stroke="grey" points="1663.4,-129.193 1670.72,-121.538 1660.22,-122.955 1663.4,-129.193"/>
<text text-anchor="middle" x="1640.75" y="-148.9" font-family="Times Roman,serif" font-size="14.00">i</text>
</g>
<!-- 1&#45;&gt;LiteralInteger -->
<g id="edge32" class="edge"><title>1&#45;&gt;LiteralInteger</title>
<path fill="none" stroke="grey" d="M1634.9,-181.351C1642.56,-170.095 1653.56,-155.285 1665.25,-144 1670.12,-139.295 1675.65,-134.743 1681.23,-130.548"/>
<polygon fill="grey" stroke="grey" points="1683.3,-133.369 1689.37,-124.683 1679.21,-127.691 1683.3,-133.369"/>
<text text-anchor="middle" x="1666.75" y="-148.9" font-family="Times Roman,serif" font-size="14.00">i</text>
</g>
<!-- 1&#45;&gt;LiteralInteger -->
<g id="edge12" class="edge"><title>1&#45;&gt;LiteralInteger</title>
<path fill="none" stroke="grey" d="M1640.24,-183.032C1647.06,-176.6 1655.08,-168.972 1662.25,-162 1671.9,-152.608 1682.39,-142.169 1691.54,-132.992"/>
<polygon fill="grey" stroke="grey" points="1694.29,-135.189 1698.86,-125.63 1689.32,-130.254 1694.29,-135.189"/>
<text text-anchor="middle" x="1680.75" y="-148.9" font-family="Times Roman,serif" font-size="14.00">i</text>
</g>
<!-- 1&#45;&gt;LiteralInteger -->
<g id="edge16" class="edge"><title>1&#45;&gt;LiteralInteger</title>
<path fill="none" stroke="grey" d="M1647.18,-188.384C1659.83,-182.231 1675.18,-173.283 1686.25,-162 1693.72,-154.387 1699.91,-144.539 1704.69,-135.342"/>
<polygon fill="grey" stroke="grey" points="1707.95,-136.64 1709.16,-126.114 1701.65,-133.59 1707.95,-136.64"/>
<text text-anchor="middle" x="1700.75" y="-148.9" font-family="Times Roman,serif" font-size="14.00">i</text>
</g>
<!-- packagedElement_BMS -->
<g id="node18" class="node"><title>packagedElement_BMS</title>
<ellipse fill="none" stroke="red" cx="2079.25" cy="-396" rx="118.13" ry="18"/>
<text text-anchor="middle" x="2079.25" y="-391.9" font-family="Times Roman,serif" font-size="14.00" fill="red">packagedElement_BMS</text>
</g>
<!-- Dependency -->
<g id="node20" class="node"><title>Dependency</title>
<ellipse fill="none" stroke="red" cx="2079.25" cy="-306" rx="66.9043" ry="18"/>
<text text-anchor="middle" x="2079.25" y="-301.9" font-family="Times Roman,serif" font-size="14.00" fill="red">Dependency</text>
</g>
<!-- packagedElement_BMS&#45;&gt;Dependency -->
<g id="edge18" class="edge"><title>packagedElement_BMS&#45;&gt;Dependency</title>
<path fill="none" stroke="grey" d="M2079.25,-377.787C2079.25,-365.344 2079.25,-348.605 2079.25,-334.421"/>
<polygon fill="grey" stroke="grey" points="2082.75,-334.186 2079.25,-324.186 2075.75,-334.186 2082.75,-334.186"/>
<text text-anchor="middle" x="2080.75" y="-346.9" font-family="Times Roman,serif" font-size="14.00">i</text>
</g>
<!-- TennisBall -->
<g id="node21" class="node"><title>TennisBall</title>
<ellipse fill="none" stroke="red" cx="1078.25" cy="-306" rx="56.9803" ry="18"/>
<text text-anchor="middle" x="1078.25" y="-301.9" font-family="Times Roman,serif" font-size="14.00" fill="red">TennisBall</text>
</g>
<!-- TennisBall&#45;&gt;Class -->
<g id="edge20" class="edge"><title>TennisBall&#45;&gt;Class</title>
<path fill="none" stroke="grey" d="M1062.88,-288.409C1050,-273.749 1031.08,-252.373 1014.25,-234 1010.64,-230.06 1006.78,-225.911 1003,-221.887"/>
<polygon fill="grey" stroke="grey" points="1005.33,-219.262 995.925,-214.39 1000.24,-224.066 1005.33,-219.262"/>
<text text-anchor="middle" x="1047.75" y="-247.9" font-family="Times Roman,serif" font-size="14.00">i</text>
</g>
<!-- radius -->
<g id="node88" class="node"><title>radius</title>
<ellipse fill="none" stroke="red" cx="1176.25" cy="-198" rx="37.0233" ry="18"/>
<text text-anchor="middle" x="1176.25" y="-193.9" font-family="Times Roman,serif" font-size="14.00" fill="red">radius</text>
</g>
<!-- TennisBall&#45;&gt;radius -->
<g id="edge94" class="edge"><title>TennisBall&#45;&gt;radius</title>
<path fill="none" stroke="black" d="M1126.56,-296.224C1141.42,-290.878 1156.43,-282.647 1166.25,-270 1175.68,-257.847 1178.4,-240.939 1178.66,-226.561"/>
<polygon fill="black" stroke="black" points="1182.15,-226.107 1178.45,-216.181 1175.15,-226.25 1182.15,-226.107"/>
<text text-anchor="middle" x="1225.75" y="-247.9" font-family="Times Roman,serif" font-size="14.00">ownedAttribute</text>
</g>
<!-- colour -->
<g id="node92" class="node"><title>colour</title>
<ellipse fill="none" stroke="red" cx="1072.25" cy="-198" rx="38.2185" ry="18"/>
<text text-anchor="middle" x="1072.25" y="-193.9" font-family="Times Roman,serif" font-size="14.00" fill="red">colour</text>
</g>
<!-- TennisBall&#45;&gt;colour -->
<g id="edge100" class="edge"><title>TennisBall&#45;&gt;colour</title>
<path fill="none" stroke="black" d="M1074,-287.785C1072.87,-282.12 1071.81,-275.831 1071.25,-270 1069.86,-255.566 1069.93,-239.431 1070.43,-226.099"/>
<polygon fill="black" stroke="black" points="1073.93,-226.248 1070.9,-216.095 1066.93,-225.919 1073.93,-226.248"/>
<text text-anchor="middle" x="1118.75" y="-247.9" font-family="Times Roman,serif" font-size="14.00">ownedAttribute</text>
</g>
<!-- 10 -->
<g id="node23" class="node"><title>10</title>
<ellipse fill="none" stroke="red" cx="1176.25" cy="-108" rx="27" ry="18"/>
<text text-anchor="middle" x="1176.25" y="-103.9" font-family="Times Roman,serif" font-size="14.00" fill="red">10</text>
</g>
<!-- LiteralString -->
<g id="node25" class="node"><title>LiteralString</title>
<ellipse fill="none" stroke="red" cx="1176.25" cy="-18" rx="63.2343" ry="18"/>
<text text-anchor="middle" x="1176.25" y="-13.9" font-family="Times Roman,serif" font-size="14.00" fill="red">LiteralString</text>
</g>
<!-- 10&#45;&gt;LiteralString -->
<g id="edge22" class="edge"><title>10&#45;&gt;LiteralString</title>
<path fill="none" stroke="grey" d="M1176.25,-89.7872C1176.25,-77.3443 1176.25,-60.6053 1176.25,-46.4211"/>
<polygon fill="grey" stroke="grey" points="1179.75,-46.1857 1176.25,-36.1858 1172.75,-46.1858 1179.75,-46.1857"/>
<text text-anchor="middle" x="1177.75" y="-58.9" font-family="Times Roman,serif" font-size="14.00">i</text>
</g>
<!-- packagedElement_WwE -->
<g id="node26" class="node"><title>packagedElement_WwE</title>
<ellipse fill="none" stroke="red" cx="1780.25" cy="-396" rx="120.215" ry="18"/>
<text text-anchor="middle" x="1780.25" y="-391.9" font-family="Times Roman,serif" font-size="14.00" fill="red">packagedElement_WwE</text>
</g>
<!-- packagedElement_WwE&#45;&gt;Association -->
<g id="edge24" class="edge"><title>packagedElement_WwE&#45;&gt;Association</title>
<path fill="none" stroke="grey" d="M1757.53,-378.219C1739.66,-364.234 1714.61,-344.63 1695.12,-329.376"/>
<polygon fill="grey" stroke="grey" points="1697.17,-326.54 1687.14,-323.134 1692.86,-332.053 1697.17,-326.54"/>
<text text-anchor="middle" x="1733.75" y="-346.9" font-family="Times Roman,serif" font-size="14.00">i</text>
</g>
<!-- within -->
<g id="node95" class="node"><title>within</title>
<ellipse fill="none" stroke="red" cx="1780.25" cy="-306" rx="34.9399" ry="18"/>
<text text-anchor="middle" x="1780.25" y="-301.9" font-family="Times Roman,serif" font-size="14.00" fill="red">within</text>
</g>
<!-- packagedElement_WwE&#45;&gt;within -->
<g id="edge104" class="edge"><title>packagedElement_WwE&#45;&gt;within</title>
<path fill="none" stroke="black" d="M1780.25,-377.787C1780.25,-365.344 1780.25,-348.605 1780.25,-334.421"/>
<polygon fill="black" stroke="black" points="1783.75,-334.186 1780.25,-324.186 1776.75,-334.186 1783.75,-334.186"/>
<text text-anchor="middle" x="1814.25" y="-346.9" font-family="Times Roman,serif" font-size="14.00">ownedEnd</text>
</g>
<!-- carries -->
<g id="node99" class="node"><title>carries</title>
<ellipse fill="none" stroke="red" cx="1874.25" cy="-306" rx="40.9981" ry="18"/>
<text text-anchor="middle" x="1874.25" y="-301.9" font-family="Times Roman,serif" font-size="14.00" fill="red">carries</text>
</g>
<!-- packagedElement_WwE&#45;&gt;carries -->
<g id="edge110" class="edge"><title>packagedElement_WwE&#45;&gt;carries</title>
<path fill="none" stroke="black" d="M1825.18,-379.21C1834.66,-374.124 1843.98,-367.771 1851.25,-360 1858.15,-352.623 1863.16,-342.861 1866.7,-333.667"/>
<polygon fill="black" stroke="black" points="1870.06,-334.649 1869.99,-324.055 1863.44,-332.382 1870.06,-334.649"/>
<text text-anchor="middle" x="1896.25" y="-346.9" font-family="Times Roman,serif" font-size="14.00">ownedEnd</text>
</g>
<!-- The Person State Machine -->
<g id="node32" class="node"><title>The Person State Machine</title>
<ellipse fill="none" stroke="red" cx="2364.25" cy="-396" rx="127.163" ry="18"/>
<text text-anchor="middle" x="2364.25" y="-391.9" font-family="Times Roman,serif" font-size="14.00" fill="red">The Person State Machine</text>
</g>
<!-- StateMachine -->
<g id="node34" class="node"><title>StateMachine</title>
<ellipse fill="none" stroke="red" cx="2330.25" cy="-306" rx="70.878" ry="18"/>
<text text-anchor="middle" x="2330.25" y="-301.9" font-family="Times Roman,serif" font-size="14.00" fill="red">StateMachine</text>
</g>
<!-- The Person State Machine&#45;&gt;StateMachine -->
<g id="edge34" class="edge"><title>The Person State Machine&#45;&gt;StateMachine</title>
<path fill="none" stroke="grey" d="M2357.37,-377.787C2352.57,-365.1 2346.09,-347.947 2340.67,-333.59"/>
<polygon fill="grey" stroke="grey" points="2343.93,-332.304 2337.12,-324.186 2337.38,-334.777 2343.93,-332.304"/>
<text text-anchor="middle" x="2351.75" y="-346.9" font-family="Times Roman,serif" font-size="14.00">i</text>
</g>
<!-- region_YYK -->
<g id="node103" class="node"><title>region_YYK</title>
<ellipse fill="none" stroke="red" cx="2483.25" cy="-306" rx="63.9292" ry="18"/>
<text text-anchor="middle" x="2483.25" y="-301.9" font-family="Times Roman,serif" font-size="14.00" fill="red">region_YYK</text>
</g>
<!-- The Person State Machine&#45;&gt;region_YYK -->
<g id="edge116" class="edge"><title>The Person State Machine&#45;&gt;region_YYK</title>
<path fill="none" stroke="black" d="M2387.76,-378.219C2406.33,-364.171 2432.4,-344.455 2452.61,-329.172"/>
<polygon fill="black" stroke="black" points="2454.73,-331.957 2460.59,-323.134 2450.51,-326.374 2454.73,-331.957"/>
<text text-anchor="middle" x="2454.25" y="-346.9" font-family="Times Roman,serif" font-size="14.00">region</text>
</g>
<!-- Standing -->
<g id="node35" class="node"><title>Standing</title>
<ellipse fill="none" stroke="red" cx="2178.25" cy="-198" rx="50.0315" ry="18"/>
<text text-anchor="middle" x="2178.25" y="-193.9" font-family="Times Roman,serif" font-size="14.00" fill="red">Standing</text>
</g>
<!-- State -->
<g id="node37" class="node"><title>State</title>
<ellipse fill="none" stroke="red" cx="1841.25" cy="-108" rx="34.0492" ry="18"/>
<text text-anchor="middle" x="1841.25" y="-103.9" font-family="Times Roman,serif" font-size="14.00" fill="red">State</text>
</g>
<!-- Standing&#45;&gt;State -->
<g id="edge36" class="edge"><title>Standing&#45;&gt;State</title>
<path fill="none" stroke="grey" d="M2133.81,-189.379C2075.7,-177.594 1971.09,-154.616 1884.25,-126 1881.83,-125.202 1879.35,-124.328 1876.87,-123.409"/>
<polygon fill="grey" stroke="grey" points="1877.97,-120.081 1867.38,-119.703 1875.42,-126.601 1877.97,-120.081"/>
<text text-anchor="middle" x="2004.75" y="-148.9" font-family="Times Roman,serif" font-size="14.00">i</text>
</g>
<!-- Entry Activity Here -->
<g id="node38" class="node"><title>Entry Activity Here</title>
<ellipse fill="none" stroke="red" cx="1984.25" cy="-108" rx="91.0296" ry="18"/>
<text text-anchor="middle" x="1984.25" y="-103.9" font-family="Times Roman,serif" font-size="14.00" fill="red">Entry Activity Here</text>
</g>
<!-- Standing&#45;&gt;Entry Activity Here -->
<g id="edge120" class="edge"><title>Standing&#45;&gt;Entry Activity Here</title>
<path fill="none" stroke="black" d="M2147.51,-183.739C2115.73,-168.997 2065.78,-145.825 2029.49,-128.991"/>
<polygon fill="black" stroke="black" points="2030.66,-125.674 2020.12,-124.64 2027.72,-132.024 2030.66,-125.674"/>
<text text-anchor="middle" x="2113.75" y="-148.9" font-family="Times Roman,serif" font-size="14.00">entry</text>
</g>
<!-- Exit Activity Here -->
<g id="node41" class="node"><title>Exit Activity Here</title>
<ellipse fill="none" stroke="red" cx="2178.25" cy="-108" rx="84.7756" ry="18"/>
<text text-anchor="middle" x="2178.25" y="-103.9" font-family="Times Roman,serif" font-size="14.00" fill="red">Exit Activity Here</text>
</g>
<!-- Standing&#45;&gt;Exit Activity Here -->
<g id="edge122" class="edge"><title>Standing&#45;&gt;Exit Activity Here</title>
<path fill="none" stroke="black" d="M2178.25,-179.787C2178.25,-167.344 2178.25,-150.605 2178.25,-136.421"/>
<polygon fill="black" stroke="black" points="2181.75,-136.186 2178.25,-126.186 2174.75,-136.186 2181.75,-136.186"/>
<text text-anchor="middle" x="2189.25" y="-148.9" font-family="Times Roman,serif" font-size="14.00">exit</text>
</g>
<!-- Stand using legs -->
<g id="node43" class="node"><title>Stand using legs</title>
<ellipse fill="none" stroke="red" cx="2365.25" cy="-108" rx="84.0808" ry="18"/>
<text text-anchor="middle" x="2365.25" y="-103.9" font-family="Times Roman,serif" font-size="14.00" fill="red">Stand using legs</text>
</g>
<!-- Standing&#45;&gt;Stand using legs -->
<g id="edge124" class="edge"><title>Standing&#45;&gt;Stand using legs</title>
<path fill="none" stroke="black" d="M2208.29,-183.54C2238.87,-168.824 2286.59,-145.858 2321.39,-129.11"/>
<polygon fill="black" stroke="black" points="2323.34,-132.054 2330.83,-124.563 2320.31,-125.746 2323.34,-132.054"/>
<text text-anchor="middle" x="2318.75" y="-148.9" font-family="Times Roman,serif" font-size="14.00">doActivity</text>
</g>
<!-- Activity -->
<g id="node40" class="node"><title>Activity</title>
<ellipse fill="none" stroke="red" cx="2178.25" cy="-18" rx="41.1906" ry="18"/>
<text text-anchor="middle" x="2178.25" y="-13.9" font-family="Times Roman,serif" font-size="14.00" fill="red">Activity</text>
</g>
<!-- Entry Activity Here&#45;&gt;Activity -->
<g id="edge38" class="edge"><title>Entry Activity Here&#45;&gt;Activity</title>
<path fill="none" stroke="grey" d="M2020.28,-91.2826C2054.54,-75.3912 2105.85,-51.5863 2140.62,-35.4554"/>
<polygon fill="grey" stroke="grey" points="2142.36,-38.5055 2149.96,-31.1221 2139.42,-32.1556 2142.36,-38.5055"/>
<text text-anchor="middle" x="2099.75" y="-58.9" font-family="Times Roman,serif" font-size="14.00">i</text>
</g>
<!-- Exit Activity Here&#45;&gt;Activity -->
<g id="edge40" class="edge"><title>Exit Activity Here&#45;&gt;Activity</title>
<path fill="none" stroke="grey" d="M2178.25,-89.7872C2178.25,-77.3443 2178.25,-60.6053 2178.25,-46.4211"/>
<polygon fill="grey" stroke="grey" points="2181.75,-46.1857 2178.25,-36.1858 2174.75,-46.1858 2181.75,-46.1857"/>
<text text-anchor="middle" x="2179.75" y="-58.9" font-family="Times Roman,serif" font-size="14.00">i</text>
</g>
<!-- Stand using legs&#45;&gt;Activity -->
<g id="edge42" class="edge"><title>Stand using legs&#45;&gt;Activity</title>
<path fill="none" stroke="grey" d="M2330.95,-91.4926C2298.08,-75.6751 2248.64,-51.8791 2214.99,-35.681"/>
<polygon fill="grey" stroke="grey" points="2216.47,-32.5097 2205.94,-31.3267 2213.43,-38.8172 2216.47,-32.5097"/>
<text text-anchor="middle" x="2289.75" y="-58.9" font-family="Times Roman,serif" font-size="14.00">i</text>
</g>
<!-- Sitting -->
<g id="node45" class="node"><title>Sitting</title>
<ellipse fill="none" stroke="red" cx="1985.25" cy="-198" rx="38.2185" ry="18"/>
<text text-anchor="middle" x="1985.25" y="-193.9" font-family="Times Roman,serif" font-size="14.00" fill="red">Sitting</text>
</g>
<!-- Sitting&#45;&gt;State -->
<g id="edge44" class="edge"><title>Sitting&#45;&gt;State</title>
<path fill="none" stroke="grey" d="M1962.11,-183.54C1937.68,-168.272 1899.05,-144.124 1872.05,-127.252"/>
<polygon fill="grey" stroke="grey" points="1873.72,-124.165 1863.38,-121.833 1870.01,-130.101 1873.72,-124.165"/>
<text text-anchor="middle" x="1926.75" y="-148.9" font-family="Times Roman,serif" font-size="14.00">i</text>
</g>
<!-- subvertex_9r7 -->
<g id="node47" class="node"><title>subvertex_9r7</title>
<ellipse fill="none" stroke="red" cx="2322.25" cy="-198" rx="73.8534" ry="18"/>
<text text-anchor="middle" x="2322.25" y="-193.9" font-family="Times Roman,serif" font-size="14.00" fill="red">subvertex_9r7</text>
</g>
<!-- Pseudostate -->
<g id="node49" class="node"><title>Pseudostate</title>
<ellipse fill="none" stroke="red" cx="2533.25" cy="-108" rx="66.2071" ry="18"/>
<text text-anchor="middle" x="2533.25" y="-103.9" font-family="Times Roman,serif" font-size="14.00" fill="red">Pseudostate</text>
</g>
<!-- subvertex_9r7&#45;&gt;Pseudostate -->
<g id="edge46" class="edge"><title>subvertex_9r7&#45;&gt;Pseudostate</title>
<path fill="none" stroke="grey" d="M2359,-182.323C2394.92,-167.002 2449.67,-143.648 2488.2,-127.217"/>
<polygon fill="grey" stroke="grey" points="2489.79,-130.34 2497.62,-123.197 2487.05,-123.901 2489.79,-130.34"/>
<text text-anchor="middle" x="2447.75" y="-148.9" font-family="Times Roman,serif" font-size="14.00">i</text>
</g>
<!-- subvertex_&#45;lv -->
<g id="node50" class="node"><title>subvertex_&#45;lv</title>
<ellipse fill="none" stroke="red" cx="2483.25" cy="-198" rx="68.9883" ry="18"/>
<text text-anchor="middle" x="2483.25" y="-193.9" font-family="Times Roman,serif" font-size="14.00" fill="red">subvertex_&#45;lv</text>
</g>
<!-- FinalState -->
<g id="node52" class="node"><title>FinalState</title>
<ellipse fill="none" stroke="red" cx="2672.25" cy="-108" rx="54.8957" ry="18"/>
<text text-anchor="middle" x="2672.25" y="-103.9" font-family="Times Roman,serif" font-size="14.00" fill="red">FinalState</text>
</g>
<!-- subvertex_&#45;lv&#45;&gt;FinalState -->
<g id="edge48" class="edge"><title>subvertex_&#45;lv&#45;&gt;FinalState</title>
<path fill="none" stroke="grey" d="M2516.6,-182.117C2548.67,-166.849 2597.19,-143.744 2631.52,-127.396"/>
<polygon fill="grey" stroke="grey" points="2633.27,-130.436 2640.8,-122.977 2630.26,-124.116 2633.27,-130.436"/>
<text text-anchor="middle" x="2595.75" y="-148.9" font-family="Times Roman,serif" font-size="14.00">i</text>
</g>
<!-- Property -->
<g id="node56" class="node"><title>Property</title>
<ellipse fill="none" stroke="red" cx="866.248" cy="-108" rx="48.1403" ry="18"/>
<text text-anchor="middle" x="866.248" y="-103.9" font-family="Times Roman,serif" font-size="14.00" fill="red">Property</text>
</g>
<!-- MyAttr&#45;&gt;Property -->
<g id="edge52" class="edge"><title>MyAttr&#45;&gt;Property</title>
<path fill="none" stroke="grey" d="M783.305,-181.91C798.952,-167.967 821.805,-147.603 839.563,-131.779"/>
<polygon fill="grey" stroke="grey" points="842.182,-134.133 847.319,-124.867 837.525,-128.907 842.182,-134.133"/>
<text text-anchor="middle" x="826.748" y="-148.9" font-family="Times Roman,serif" font-size="14.00">i</text>
</g>
<!-- ownedParameter_a7o -->
<g id="node60" class="node"><title>ownedParameter_a7o</title>
<ellipse fill="none" stroke="red" cx="627.248" cy="-108" rx="107.902" ry="18"/>
<text text-anchor="middle" x="627.248" y="-103.9" font-family="Times Roman,serif" font-size="14.00" fill="red">ownedParameter_a7o</text>
</g>
<!-- myOperation&#45;&gt;ownedParameter_a7o -->
<g id="edge56" class="edge"><title>myOperation&#45;&gt;ownedParameter_a7o</title>
<path fill="none" stroke="black" d="M465.167,-183.84C482.687,-177.604 503.141,-169.904 521.248,-162 543.308,-152.37 567.251,-140.317 586.79,-130.042"/>
<polygon fill="black" stroke="black" points="588.52,-133.086 595.717,-125.311 585.243,-126.901 588.52,-133.086"/>
<text text-anchor="middle" x="611.248" y="-148.9" font-family="Times Roman,serif" font-size="14.00">ownedParameter</text>
</g>
<!-- str -->
<g id="node62" class="node"><title>str</title>
<ellipse fill="none" stroke="red" cx="149.248" cy="-108" rx="27" ry="18"/>
<text text-anchor="middle" x="149.248" y="-103.9" font-family="Times Roman,serif" font-size="14.00" fill="red">str</text>
</g>
<!-- myOperation&#45;&gt;str -->
<g id="edge58" class="edge"><title>myOperation&#45;&gt;str</title>
<path fill="none" stroke="black" d="M373.643,-185.749C342.816,-177.888 306.287,-168.055 291.248,-162 275.751,-155.76 273.576,-150.647 258.248,-144 234.098,-133.528 205.853,-124.278 184.166,-117.778"/>
<polygon fill="black" stroke="black" points="184.98,-114.369 174.399,-114.902 183.003,-121.084 184.98,-114.369"/>
<text text-anchor="middle" x="345.248" y="-148.9" font-family="Times Roman,serif" font-size="14.00">ownedParameter</text>
</g>
<!-- myOperation&#45;&gt;str -->
<g id="edge80" class="edge"><title>myOperation&#45;&gt;str</title>
<path fill="none" stroke="black" d="M374.804,-185.434C365.695,-183.382 356.216,-181.456 347.248,-180 325.115,-176.407 161.38,-178.547 146.248,-162 139.78,-154.927 138.947,-144.909 140.284,-135.419"/>
<polygon fill="black" stroke="black" points="143.738,-136.006 142.422,-125.493 136.895,-134.531 143.738,-136.006"/>
<text text-anchor="middle" x="200.248" y="-148.9" font-family="Times Roman,serif" font-size="14.00">ownedParameter</text>
</g>
<!-- ownedParameter_W45 -->
<g id="node77" class="node"><title>ownedParameter_W45</title>
<ellipse fill="none" stroke="red" cx="388.248" cy="-108" rx="112.767" ry="18"/>
<text text-anchor="middle" x="388.248" y="-103.9" font-family="Times Roman,serif" font-size="14.00" fill="red">ownedParameter_W45</text>
</g>
<!-- myOperation&#45;&gt;ownedParameter_W45 -->
<g id="edge78" class="edge"><title>myOperation&#45;&gt;ownedParameter_W45</title>
<path fill="none" stroke="black" d="M416.165,-179.787C411.232,-167.1 404.561,-149.947 398.977,-135.59"/>
<polygon fill="black" stroke="black" points="402.207,-134.237 395.32,-126.186 395.683,-136.774 402.207,-134.237"/>
<text text-anchor="middle" x="463.248" y="-148.9" font-family="Times Roman,serif" font-size="14.00">ownedParameter</text>
</g>
<!-- MyAttr2&#45;&gt;Property -->
<g id="edge64" class="edge"><title>MyAttr2&#45;&gt;Property</title>
<path fill="none" stroke="grey" d="M557.021,-238.967C618.376,-212.981 755.961,-154.71 825.034,-125.455"/>
<polygon fill="grey" stroke="grey" points="826.468,-128.649 834.311,-121.526 823.738,-122.204 826.468,-128.649"/>
<text text-anchor="middle" x="697.748" y="-193.9" font-family="Times Roman,serif" font-size="14.00">i</text>
</g>
<!-- myOperation2&#45;&gt;str -->
<g id="edge70" class="edge"><title>myOperation2&#45;&gt;str</title>
<path fill="none" stroke="black" d="M163.831,-298.9C111.423,-289.441 41.983,-267.39 7.24815,-216 -24.6225,-168.848 62.4169,-133.743 114.085,-117.684"/>
<polygon fill="black" stroke="black" points="115.335,-120.963 123.901,-114.728 113.317,-114.26 115.335,-120.963"/>
<text text-anchor="middle" x="61.2481" y="-193.9" font-family="Times Roman,serif" font-size="14.00">ownedParameter</text>
</g>
<!-- ownedParameter_cvu -->
<g id="node70" class="node"><title>ownedParameter_cvu</title>
<ellipse fill="none" stroke="red" cx="231.248" cy="-198" rx="107.012" ry="18"/>
<text text-anchor="middle" x="231.248" y="-193.9" font-family="Times Roman,serif" font-size="14.00" fill="red">ownedParameter_cvu</text>
</g>
<!-- myOperation2&#45;&gt;ownedParameter_cvu -->
<g id="edge68" class="edge"><title>myOperation2&#45;&gt;ownedParameter_cvu</title>
<path fill="none" stroke="black" d="M231.248,-287.679C231.248,-270.821 231.248,-245.565 231.248,-226.147"/>
<polygon fill="black" stroke="black" points="234.748,-226.05 231.248,-216.05 227.748,-226.05 234.748,-226.05"/>
<text text-anchor="middle" x="285.248" y="-247.9" font-family="Times Roman,serif" font-size="14.00">ownedParameter</text>
</g>
<!-- MyAttr1&#45;&gt;Property -->
<g id="edge74" class="edge"><title>MyAttr1&#45;&gt;Property</title>
<path fill="none" stroke="grey" d="M866.248,-179.787C866.248,-167.344 866.248,-150.605 866.248,-136.421"/>
<polygon fill="grey" stroke="grey" points="869.748,-136.186 866.248,-126.186 862.748,-136.186 869.748,-136.186"/>
<text text-anchor="middle" x="867.748" y="-148.9" font-family="Times Roman,serif" font-size="14.00">i</text>
</g>
<!-- is managed by&#45;&gt;1 -->
<g id="edge84" class="edge"><title>is managed by&#45;&gt;1</title>
<path fill="none" stroke="black" d="M1499.56,-287.955C1491.78,-272.215 1484.48,-249.53 1496.25,-234 1507.3,-219.409 1553.78,-209.08 1587.56,-203.332"/>
<polygon fill="black" stroke="black" points="1588.27,-206.762 1597.58,-201.696 1587.14,-199.853 1588.27,-206.762"/>
<text text-anchor="middle" x="1532.75" y="-247.9" font-family="Times Roman,serif" font-size="14.00">upperValue</text>
</g>
<!-- is managed by&#45;&gt;1 -->
<g id="edge86" class="edge"><title>is managed by&#45;&gt;1</title>
<path fill="none" stroke="black" d="M1542.77,-289.752C1551.95,-284.25 1561.53,-277.557 1569.25,-270 1582.81,-256.714 1580.79,-249.143 1592.25,-234 1595.51,-229.692 1599.16,-225.266 1602.8,-221.056"/>
<polygon fill="black" stroke="black" points="1605.65,-223.115 1609.67,-213.314 1600.41,-218.468 1605.65,-223.115"/>
<text text-anchor="middle" x="1627.25" y="-247.9" font-family="Times Roman,serif" font-size="14.00">lowerValue</text>
</g>
<!-- manages&#45;&gt;1 -->
<g id="edge90" class="edge"><title>manages&#45;&gt;1</title>
<path fill="none" stroke="black" d="M1330.86,-292.338C1321.53,-286.858 1312.55,-279.528 1307.25,-270 1299.47,-256.018 1296.59,-245.935 1307.25,-234 1325.63,-213.414 1507.52,-203.062 1587.19,-199.486"/>
<polygon fill="black" stroke="black" points="1587.44,-202.979 1597.28,-199.045 1587.14,-195.985 1587.44,-202.979"/>
<text text-anchor="middle" x="1343.75" y="-247.9" font-family="Times Roman,serif" font-size="14.00">upperValue</text>
</g>
<!-- manages&#45;&gt;1 -->
<g id="edge92" class="edge"><title>manages&#45;&gt;1</title>
<path fill="none" stroke="black" d="M1372.95,-288.103C1381.15,-271.315 1395.78,-246.916 1416.25,-234 1444.08,-216.434 1535.26,-205.795 1587.19,-201.01"/>
<polygon fill="black" stroke="black" points="1587.68,-204.481 1597.33,-200.105 1587.06,-197.508 1587.68,-204.481"/>
<text text-anchor="middle" x="1451.25" y="-247.9" font-family="Times Roman,serif" font-size="14.00">lowerValue</text>
</g>
<!-- radius&#45;&gt;10 -->
<g id="edge98" class="edge"><title>radius&#45;&gt;10</title>
<path fill="none" stroke="black" d="M1176.25,-179.787C1176.25,-167.344 1176.25,-150.605 1176.25,-136.421"/>
<polygon fill="black" stroke="black" points="1179.75,-136.186 1176.25,-126.186 1172.75,-136.186 1179.75,-136.186"/>
<text text-anchor="middle" x="1215.75" y="-148.9" font-family="Times Roman,serif" font-size="14.00">defaultValue</text>
</g>
<!-- radius&#45;&gt;Property -->
<g id="edge96" class="edge"><title>radius&#45;&gt;Property</title>
<path fill="none" stroke="grey" d="M1145.23,-188.059C1136.81,-185.402 1127.69,-182.558 1119.25,-180 1048.57,-158.583 966.225,-135.493 915.159,-121.389"/>
<polygon fill="grey" stroke="grey" points="915.946,-117.976 905.376,-118.692 914.086,-124.724 915.946,-117.976"/>
<text text-anchor="middle" x="1058.75" y="-148.9" font-family="Times Roman,serif" font-size="14.00">i</text>
</g>
<!-- colour&#45;&gt;Property -->
<g id="edge102" class="edge"><title>colour&#45;&gt;Property</title>
<path fill="none" stroke="grey" d="M1044.04,-185.675C1008.64,-170.209 947.669,-143.572 907.153,-125.871"/>
<polygon fill="grey" stroke="grey" points="908.392,-122.593 897.827,-121.797 905.589,-129.007 908.392,-122.593"/>
<text text-anchor="middle" x="989.748" y="-148.9" font-family="Times Roman,serif" font-size="14.00">i</text>
</g>
<!-- within&#45;&gt;1 -->
<g id="edge106" class="edge"><title>within&#45;&gt;1</title>
<path fill="none" stroke="black" d="M1752.87,-294.557C1747.38,-292.333 1741.65,-290.056 1736.25,-288 1713.78,-279.447 1704.08,-284.941 1685.25,-270 1670.38,-258.198 1674.34,-248.638 1662.25,-234 1658.07,-228.942 1653.23,-223.875 1648.43,-219.205"/>
<polygon fill="black" stroke="black" points="1650.7,-216.543 1641.02,-212.252 1645.91,-221.647 1650.7,-216.543"/>
<text text-anchor="middle" x="1721.75" y="-247.9" font-family="Times Roman,serif" font-size="14.00">upperValue</text>
</g>
<!-- within&#45;&gt;1 -->
<g id="edge108" class="edge"><title>within&#45;&gt;1</title>
<path fill="none" stroke="black" d="M1779.48,-287.796C1777.81,-271.504 1772.82,-248.079 1758.25,-234 1744.43,-220.649 1695.82,-209.96 1661.13,-203.798"/>
<polygon fill="black" stroke="black" points="1661.31,-200.279 1650.86,-202.034 1660.12,-207.178 1661.31,-200.279"/>
<text text-anchor="middle" x="1811.25" y="-247.9" font-family="Times Roman,serif" font-size="14.00">lowerValue</text>
</g>
<!-- carries&#45;&gt;1 -->
<g id="edge112" class="edge"><title>carries&#45;&gt;1</title>
<path fill="none" stroke="black" d="M1873.3,-287.711C1871.41,-271.124 1865.92,-247.297 1850.25,-234 1822.44,-210.409 1718.3,-202.14 1661.6,-199.349"/>
<polygon fill="black" stroke="black" points="1661.75,-195.852 1651.6,-198.89 1661.43,-202.845 1661.75,-195.852"/>
<text text-anchor="middle" x="1905.75" y="-247.9" font-family="Times Roman,serif" font-size="14.00">upperValue</text>
</g>
<!-- carries&#45;&gt;1 -->
<g id="edge114" class="edge"><title>carries&#45;&gt;1</title>
<path fill="none" stroke="black" d="M1909.91,-296.988C1923.74,-291.563 1938.17,-283.077 1946.25,-270 1954.66,-256.39 1956.91,-245.926 1946.25,-234 1927.54,-213.085 1742.36,-202.903 1661.6,-199.429"/>
<polygon fill="black" stroke="black" points="1661.51,-195.922 1651.37,-199.001 1661.22,-202.916 1661.51,-195.922"/>
<text text-anchor="middle" x="1988.25" y="-247.9" font-family="Times Roman,serif" font-size="14.00">lowerValue</text>
</g>
<!-- region_YYK&#45;&gt;Standing -->
<g id="edge118" class="edge"><title>region_YYK&#45;&gt;Standing</title>
<path fill="none" stroke="black" d="M2435.86,-293.734C2427.36,-291.7 2418.56,-289.702 2410.25,-288 2361.72,-278.062 2346.82,-286.879 2300.25,-270 2266.89,-257.91 2232.38,-236.577 2208.61,-220.261"/>
<polygon fill="black" stroke="black" points="2210.57,-217.357 2200.36,-214.503 2206.56,-223.097 2210.57,-217.357"/>
<text text-anchor="middle" x="2331.25" y="-247.9" font-family="Times Roman,serif" font-size="14.00">subvertex</text>
</g>
<!-- region_YYK&#45;&gt;Sitting -->
<g id="edge126" class="edge"><title>region_YYK&#45;&gt;Sitting</title>
<path fill="none" stroke="black" d="M2437.15,-293.389C2428.27,-291.315 2419.01,-289.393 2410.25,-288 2302.42,-270.87 2271.63,-294.564 2165.25,-270 2112.87,-257.905 2055.78,-232.874 2020.25,-215.758"/>
<polygon fill="black" stroke="black" points="2021.78,-212.611 2011.26,-211.374 2018.71,-218.903 2021.78,-212.611"/>
<text text-anchor="middle" x="2196.25" y="-247.9" font-family="Times Roman,serif" font-size="14.00">subvertex</text>
</g>
<!-- region_YYK&#45;&gt;subvertex_9r7 -->
<g id="edge128" class="edge"><title>region_YYK&#45;&gt;subvertex_9r7</title>
<path fill="none" stroke="black" d="M2452.14,-290.261C2440.93,-284.271 2428.32,-277.157 2417.25,-270 2394.34,-255.189 2369.84,-236.542 2351.45,-221.936"/>
<polygon fill="black" stroke="black" points="2353.46,-219.058 2343.47,-215.538 2349.08,-224.521 2353.46,-219.058"/>
<text text-anchor="middle" x="2448.25" y="-247.9" font-family="Times Roman,serif" font-size="14.00">subvertex</text>
</g>
<!-- region_YYK&#45;&gt;subvertex_&#45;lv -->
<g id="edge130" class="edge"><title>region_YYK&#45;&gt;subvertex_&#45;lv</title>
<path fill="none" stroke="black" d="M2483.25,-287.679C2483.25,-270.821 2483.25,-245.565 2483.25,-226.147"/>
<polygon fill="black" stroke="black" points="2486.75,-226.05 2483.25,-216.05 2479.75,-226.05 2486.75,-226.05"/>
<text text-anchor="middle" x="2514.25" y="-247.9" font-family="Times Roman,serif" font-size="14.00">subvertex</text>
</g>
<!-- Sits Down -->
<g id="node112" class="node"><title>Sits Down</title>
<ellipse fill="none" stroke="red" cx="2625.25" cy="-198" rx="55.0898" ry="18"/>
<text text-anchor="middle" x="2625.25" y="-193.9" font-family="Times Roman,serif" font-size="14.00" fill="red">Sits Down</text>
</g>
<!-- region_YYK&#45;&gt;Sits Down -->
<g id="edge132" class="edge"><title>region_YYK&#45;&gt;Sits Down</title>
<path fill="none" stroke="black" d="M2515.82,-290.386C2526.81,-284.563 2538.9,-277.524 2549.25,-270 2568.52,-255.979 2587.99,-237.429 2602.4,-222.67"/>
<polygon fill="black" stroke="black" points="2605.04,-224.976 2609.45,-215.341 2599.99,-220.125 2605.04,-224.976"/>
<text text-anchor="middle" x="2618.25" y="-247.9" font-family="Times Roman,serif" font-size="14.00">transition</text>
</g>
<!-- transition__Rj -->
<g id="node114" class="node"><title>transition__Rj</title>
<ellipse fill="none" stroke="red" cx="2769.25" cy="-198" rx="70.878" ry="18"/>
<text text-anchor="middle" x="2769.25" y="-193.9" font-family="Times Roman,serif" font-size="14.00" fill="red">transition__Rj</text>
</g>
<!-- region_YYK&#45;&gt;transition__Rj -->
<g id="edge134" class="edge"><title>region_YYK&#45;&gt;transition__Rj</title>
<path fill="none" stroke="black" d="M2541.45,-298.319C2574.2,-292.807 2615.38,-283.854 2650.25,-270 2681.89,-257.429 2714.77,-236.866 2737.93,-220.927"/>
<polygon fill="black" stroke="black" points="2740.12,-223.669 2746.31,-215.071 2736.11,-217.932 2740.12,-223.669"/>
<text text-anchor="middle" x="2744.25" y="-247.9" font-family="Times Roman,serif" font-size="14.00">transition</text>
</g>
<!-- transition__zh -->
<g id="node116" class="node"><title>transition__zh</title>
<ellipse fill="none" stroke="red" cx="2929.25" cy="-198" rx="71.0724" ry="18"/>
<text text-anchor="middle" x="2929.25" y="-193.9" font-family="Times Roman,serif" font-size="14.00" fill="red">transition__zh</text>
</g>
<!-- region_YYK&#45;&gt;transition__zh -->
<g id="edge136" class="edge"><title>region_YYK&#45;&gt;transition__zh</title>
<path fill="none" stroke="black" d="M2544.78,-300.749C2617.56,-294.133 2734.15,-282.154 2776.25,-270 2817.66,-258.046 2861.89,-236.123 2892.09,-219.597"/>
<polygon fill="black" stroke="black" points="2893.95,-222.57 2900.99,-214.658 2890.55,-216.448 2893.95,-222.57"/>
<text text-anchor="middle" x="2889.25" y="-247.9" font-family="Times Roman,serif" font-size="14.00">transition</text>
</g>
</g>
</svg>
