<?xml version="1.0" encoding="UTF-8" standalone="no"?>
<!DOCTYPE svg PUBLIC "-//W3C//DTD SVG 1.1//EN"
 "http://www.w3.org/Graphics/SVG/1.1/DTD/svg11.dtd">
<!-- Generated by graphviz version 2.22.2 (20090313.1817)
 -->
<!-- Title: umlMetamodel Pages: 1 -->
<svg width="2695pt" height="764pt"
 viewBox="0.00 0.00 2695.22 764.00" xmlns="http://www.w3.org/2000/svg" xmlns:xlink="http://www.w3.org/1999/xlink">
<g id="graph1" class="graph" transform="scale(1 1) rotate(0) translate(4 760)">
<title>umlMetamodel</title>
<polygon fill="white" stroke="white" points="-4,5 -4,-760 2692.22,-760 2692.22,5 -4,5"/>
<!-- StateMachine -->
<g id="node1" class="node"><title>StateMachine</title>
<ellipse fill="none" stroke="black" cx="503" cy="-558" rx="70.878" ry="18"/>
<text text-anchor="middle" x="503" y="-553.9" font-family="Times Roman,serif" font-size="14.00">StateMachine</text>
</g>
<!-- StateMachine&#45;&gt;StateMachine -->
<g id="edge8" class="edge"><title>StateMachine&#45;&gt;StateMachine</title>
<path fill="none" stroke="black" d="M566.6,-566.068C581.243,-565.373 592,-562.684 592,-558 592,-554.487 585.949,-552.096 576.747,-550.827"/>
<polygon fill="black" stroke="black" points="576.869,-547.324 566.6,-549.932 576.254,-554.297 576.869,-547.324"/>
<text text-anchor="middle" x="664.5" y="-553.9" font-family="Times Roman,serif" font-size="14.00">extendedStateMachine</text>
</g>
<!-- Class -->
<g id="node3" class="node"><title>Class</title>
<ellipse fill="none" stroke="black" cx="700" cy="-18" rx="36.1339" ry="18"/>
<text text-anchor="middle" x="700" y="-13.9" font-family="Times Roman,serif" font-size="14.00">Class</text>
</g>
<!-- StateMachine&#45;&gt;Class -->
<g id="edge2" class="edge"><title>StateMachine&#45;&gt;Class</title>
<path fill="none" stroke="grey" d="M437.991,-550.689C320.302,-536.567 84,-503.76 84,-468 84,-468 84,-468 84,-108 84,-83.7043 120.965,-71.0462 190,-54 277.15,-32.4808 544.955,-22.493 653.541,-19.2482"/>
<polygon fill="grey" stroke="grey" points="653.954,-22.7377 663.847,-18.9463 653.749,-15.7407 653.954,-22.7377"/>
<text text-anchor="middle" x="85.5" y="-283.9" font-family="Times Roman,serif" font-size="14.00">i</text>
</g>
<!-- Region -->
<g id="node5" class="node"><title>Region</title>
<ellipse fill="none" stroke="black" cx="1226" cy="-468" rx="43.0827" ry="18"/>
<text text-anchor="middle" x="1226" y="-463.9" font-family="Times Roman,serif" font-size="14.00">Region</text>
</g>
<!-- StateMachine&#45;&gt;Region -->
<g id="edge4" class="edge"><title>StateMachine&#45;&gt;Region</title>
<path fill="none" stroke="black" d="M573.928,-556.398C746.984,-552.216 1178.62,-540.028 1204,-522 1212.58,-515.909 1217.81,-505.866 1221.01,-496.083"/>
<polygon fill="black" stroke="black" points="1224.46,-496.723 1223.66,-486.159 1217.7,-494.919 1224.46,-496.723"/>
<text text-anchor="middle" x="1237" y="-508.9" font-family="Times Roman,serif" font-size="14.00">region</text>
</g>
<!-- Pseudostate -->
<g id="node7" class="node"><title>Pseudostate</title>
<ellipse fill="none" stroke="black" cx="542" cy="-198" rx="66.2071" ry="18"/>
<text text-anchor="middle" x="542" y="-193.9" font-family="Times Roman,serif" font-size="14.00">Pseudostate</text>
</g>
<!-- StateMachine&#45;&gt;Pseudostate -->
<g id="edge6" class="edge"><title>StateMachine&#45;&gt;Pseudostate</title>
<path fill="none" stroke="black" d="M434.596,-553.024C381.549,-547.968 313.408,-538.475 291,-522 247.602,-490.092 276.823,-449.143 236,-414 216.827,-397.495 196.792,-416.523 182,-396 163.289,-370.04 179.074,-355.866 182,-324 185.796,-282.659 173.739,-258.843 207,-234 227.355,-218.796 374.376,-207.648 466.762,-202.053"/>
<polygon fill="black" stroke="black" points="467.138,-205.537 476.912,-201.447 466.721,-198.549 467.138,-205.537"/>
<text text-anchor="middle" x="232.5" y="-373.9" font-family="Times Roman,serif" font-size="14.00">connectionPoint</text>
</g>
<!-- State -->
<g id="node10" class="node"><title>State</title>
<ellipse fill="none" stroke="black" cx="636" cy="-378" rx="34.0492" ry="18"/>
<text text-anchor="middle" x="636" y="-373.9" font-family="Times Roman,serif" font-size="14.00">State</text>
</g>
<!-- StateMachine&#45;&gt;State -->
<g id="edge10" class="edge"><title>StateMachine&#45;&gt;State</title>
<path fill="none" stroke="black" d="M500.827,-539.944C499.022,-517.088 499.135,-477.399 517,-450 535.676,-421.356 570.103,-402.371 597.14,-391.123"/>
<polygon fill="black" stroke="black" points="598.717,-394.263 606.724,-387.325 596.138,-387.755 598.717,-394.263"/>
<text text-anchor="middle" x="572" y="-463.9" font-family="Times Roman,serif" font-size="14.00">submachineState</text>
</g>
<!-- Behavior -->
<g id="node12" class="node"><title>Behavior</title>
<ellipse fill="none" stroke="black" cx="322" cy="-288" rx="50.0315" ry="18"/>
<text text-anchor="middle" x="322" y="-283.9" font-family="Times Roman,serif" font-size="14.00">Behavior</text>
</g>
<!-- StateMachine&#45;&gt;Behavior -->
<g id="edge12" class="edge"><title>StateMachine&#45;&gt;Behavior</title>
<path fill="none" stroke="black" d="M498.628,-539.84C487.99,-499.932 456.746,-404.597 392,-360 346.862,-328.909 305.816,-383.488 270,-342 260.047,-330.47 270.061,-318.197 283.867,-308.269"/>
<polygon fill="black" stroke="black" points="285.877,-311.136 292.311,-302.719 282.032,-305.287 285.877,-311.136"/>
<text text-anchor="middle" x="489" y="-418.9" font-family="Times Roman,serif" font-size="14.00">superClass</text>
</g>
<!-- Region&#45;&gt;StateMachine -->
<g id="edge108" class="edge"><title>Region&#45;&gt;StateMachine</title>
<path fill="none" stroke="black" d="M1187.67,-476.252C1165.93,-481.984 1138.81,-490.965 1117,-504 1107.02,-509.967 1108.67,-517.37 1098,-522 1052.09,-541.921 735.865,-552.291 584.029,-556.17"/>
<polygon fill="black" stroke="black" points="583.737,-552.676 573.828,-556.427 583.913,-559.674 583.737,-552.676"/>
<text text-anchor="middle" x="1158.5" y="-508.9" font-family="Times Roman,serif" font-size="14.00">stateMachine</text>
</g>
<!-- Region&#45;&gt;Class -->
<g id="edge102" class="edge"><title>Region&#45;&gt;Class</title>
<path fill="none" stroke="grey" d="M1260.58,-457.063C1288.11,-446.32 1324.77,-426.967 1342,-396 1349.78,-382.018 1352.18,-372.342 1342,-360 1315.21,-327.525 1278.47,-372.066 1249,-342 1197.85,-289.818 1269.19,-234.921 1221,-180 1156.63,-106.642 858.311,-46.4161 744.385,-25.7128"/>
<polygon fill="grey" stroke="grey" points="744.729,-22.2186 734.267,-23.8902 743.488,-29.1077 744.729,-22.2186"/>
<text text-anchor="middle" x="1239.5" y="-238.9" font-family="Times Roman,serif" font-size="14.00">i</text>
</g>
<!-- Region&#45;&gt;Region -->
<g id="edge112" class="edge"><title>Region&#45;&gt;Region</title>
<path fill="none" stroke="black" d="M1264.42,-476.249C1276.99,-476.207 1287,-473.457 1287,-468 1287,-464.163 1282.05,-461.664 1274.74,-460.504"/>
<polygon fill="black" stroke="black" points="1274.65,-456.988 1264.42,-459.751 1274.14,-463.97 1274.65,-456.988"/>
<text text-anchor="middle" x="1339.5" y="-463.9" font-family="Times Roman,serif" font-size="14.00">extendedRegion</text>
</g>
<!-- Region&#45;&gt;State -->
<g id="edge110" class="edge"><title>Region&#45;&gt;State</title>
<path fill="none" stroke="black" d="M1191.9,-456.805C1152.59,-444.356 1085.83,-424.608 1027,-414 902.472,-391.546 752.964,-382.727 680.171,-379.575"/>
<polygon fill="black" stroke="black" points="680.137,-376.071 670,-379.151 679.845,-383.065 680.137,-376.071"/>
<text text-anchor="middle" x="1119.5" y="-418.9" font-family="Times Roman,serif" font-size="14.00">state</text>
</g>
<!-- Classifier -->
<g id="node20" class="node"><title>Classifier</title>
<ellipse fill="none" stroke="black" cx="1155" cy="-288" rx="52.1162" ry="18"/>
<text text-anchor="middle" x="1155" y="-283.9" font-family="Times Roman,serif" font-size="14.00">Classifier</text>
</g>
<!-- Region&#45;&gt;Classifier -->
<g id="edge114" class="edge"><title>Region&#45;&gt;Classifier</title>
<path fill="none" stroke="black" d="M1225.83,-449.868C1224.81,-421.224 1219.67,-364.593 1196,-324 1193.33,-319.412 1189.86,-315.107 1186.07,-311.181"/>
<polygon fill="black" stroke="black" points="1188.21,-308.395 1178.52,-304.124 1183.43,-313.509 1188.21,-308.395"/>
<text text-anchor="middle" x="1279.5" y="-373.9" font-family="Times Roman,serif" font-size="14.00">redefinitionContext</text>
</g>
<!-- Vertex -->
<g id="node30" class="node"><title>Vertex</title>
<ellipse fill="none" stroke="black" cx="1727" cy="-108" rx="39.1069" ry="18"/>
<text text-anchor="middle" x="1727" y="-103.9" font-family="Times Roman,serif" font-size="14.00">Vertex</text>
</g>
<!-- Region&#45;&gt;Vertex -->
<g id="edge104" class="edge"><title>Region&#45;&gt;Vertex</title>
<path fill="none" stroke="black" d="M1267.29,-462.831C1302.71,-458.62 1355.13,-452.91 1401,-450 1442.21,-447.386 2107.13,-450.589 2144,-432 2180.2,-413.749 2171.48,-388.81 2200,-360 2227.15,-332.573 2251.22,-340.753 2268,-306 2330.18,-177.222 2129.03,-177.456 1990,-144 1916.49,-126.311 1829.18,-116.509 1775.95,-111.75"/>
<polygon fill="black" stroke="black" points="1776.04,-108.245 1765.78,-110.865 1775.44,-115.218 1776.04,-108.245"/>
<text text-anchor="middle" x="2310" y="-283.9" font-family="Times Roman,serif" font-size="14.00">subvertex</text>
</g>
<!-- RedefinableElement -->
<g id="node32" class="node"><title>RedefinableElement</title>
<ellipse fill="none" stroke="black" cx="1478" cy="-288" rx="100.953" ry="18"/>
<text text-anchor="middle" x="1478" y="-283.9" font-family="Times Roman,serif" font-size="14.00">RedefinableElement</text>
</g>
<!-- Region&#45;&gt;RedefinableElement -->
<g id="edge116" class="edge"><title>Region&#45;&gt;RedefinableElement</title>
<path fill="none" stroke="black" d="M1267.53,-462.828C1297.31,-457.903 1337.72,-448.676 1370,-432 1424.61,-403.792 1447.78,-397.106 1475,-342 1478.87,-334.16 1480.33,-324.877 1480.61,-316.239"/>
<polygon fill="black" stroke="black" points="1484.1,-316.108 1480.45,-306.163 1477.1,-316.216 1484.1,-316.108"/>
<text text-anchor="middle" x="1501" y="-373.9" font-family="Times Roman,serif" font-size="14.00">superClass</text>
</g>
<!-- Namespace -->
<g id="node34" class="node"><title>Namespace</title>
<ellipse fill="none" stroke="black" cx="1009" cy="-288" rx="64.1231" ry="18"/>
<text text-anchor="middle" x="1009" y="-283.9" font-family="Times Roman,serif" font-size="14.00">Namespace</text>
</g>
<!-- Region&#45;&gt;Namespace -->
<g id="edge118" class="edge"><title>Region&#45;&gt;Namespace</title>
<path fill="none" stroke="black" d="M1202.7,-452.568C1183.29,-439.038 1155.59,-418.121 1135,-396 1108.63,-367.665 1115.47,-349.092 1086,-324 1077.91,-317.113 1068.28,-311.253 1058.62,-306.386"/>
<polygon fill="black" stroke="black" points="1059.93,-303.134 1049.39,-302.023 1056.94,-309.462 1059.93,-303.134"/>
<text text-anchor="middle" x="1171" y="-373.9" font-family="Times Roman,serif" font-size="14.00">superClass</text>
</g>
<!-- Transition -->
<g id="node35" class="node"><title>Transition</title>
<ellipse fill="none" stroke="black" cx="1936" cy="-378" rx="54.2008" ry="18"/>
<text text-anchor="middle" x="1936" y="-373.9" font-family="Times Roman,serif" font-size="14.00">Transition</text>
</g>
<!-- Region&#45;&gt;Transition -->
<g id="edge106" class="edge"><title>Region&#45;&gt;Transition</title>
<path fill="none" stroke="black" d="M1267.67,-463.085C1303.09,-459.059 1355.32,-453.476 1401,-450 1481.75,-443.855 1686.45,-451.714 1765,-432 1783.13,-427.451 1785.47,-420.467 1803,-414 1828.25,-404.687 1856.99,-396.607 1881.28,-390.475"/>
<polygon fill="black" stroke="black" points="1882.18,-393.858 1891.05,-388.053 1880.5,-387.063 1882.18,-393.858"/>
<text text-anchor="middle" x="1831" y="-418.9" font-family="Times Roman,serif" font-size="14.00">transition</text>
</g>
<!-- Pseudostate&#45;&gt;StateMachine -->
<g id="edge82" class="edge"><title>Pseudostate&#45;&gt;StateMachine</title>
<path fill="none" stroke="black" d="M481.17,-205.132C407.461,-215.158 289.777,-236.089 263,-270 245.324,-292.386 255.615,-328.118 262,-342 267.137,-353.168 275.031,-350.641 283,-360 295.157,-374.277 292.681,-381.863 305,-396 354.989,-453.364 426.742,-506.5 468.744,-535.378"/>
<polygon fill="black" stroke="black" points="467.002,-538.426 477.237,-541.164 470.944,-532.641 467.002,-538.426"/>
<text text-anchor="middle" x="346.5" y="-373.9" font-family="Times Roman,serif" font-size="14.00">stateMachine</text>
</g>
<!-- Pseudostate&#45;&gt;Class -->
<g id="edge78" class="edge"><title>Pseudostate&#45;&gt;Class</title>
<path fill="none" stroke="grey" d="M522.825,-180.514C500.784,-158.26 470.171,-119.206 491,-90 510.509,-62.6444 601.11,-39.0261 656.422,-26.8306"/>
<polygon fill="grey" stroke="grey" points="657.282,-30.2256 666.315,-24.688 655.8,-23.3842 657.282,-30.2256"/>
<text text-anchor="middle" x="492.5" y="-103.9" font-family="Times Roman,serif" font-size="14.00">i</text>
</g>
<!-- Pseudostate&#45;&gt;State -->
<g id="edge84" class="edge"><title>Pseudostate&#45;&gt;State</title>
<path fill="none" stroke="black" d="M500.769,-212.244C455.052,-230.449 390.958,-264.613 417,-306 436.052,-336.278 535.287,-359.379 593.43,-370.562"/>
<polygon fill="black" stroke="black" points="592.958,-374.034 603.433,-372.446 594.254,-367.155 592.958,-374.034"/>
<text text-anchor="middle" x="432.5" y="-283.9" font-family="Times Roman,serif" font-size="14.00">state</text>
</g>
<!-- Pseudostate&#45;&gt;Vertex -->
<g id="edge86" class="edge"><title>Pseudostate&#45;&gt;Vertex</title>
<path fill="none" stroke="black" d="M589.898,-185.53C616.213,-178.65 649.424,-169.919 679,-162 708.37,-154.136 714.943,-148.587 745,-144 927.832,-116.097 1505.38,-109.635 1677.88,-108.311"/>
<polygon fill="black" stroke="black" points="1677.97,-111.81 1687.94,-108.236 1677.92,-104.811 1677.97,-111.81"/>
<text text-anchor="middle" x="781" y="-148.9" font-family="Times Roman,serif" font-size="14.00">superClass</text>
</g>
<!-- PseudostateKind -->
<g id="node57" class="node"><title>PseudostateKind</title>
<ellipse fill="none" stroke="black" cx="724" cy="-108" rx="86.8603" ry="18"/>
<text text-anchor="middle" x="724" y="-103.9" font-family="Times Roman,serif" font-size="14.00">PseudostateKind</text>
</g>
<!-- Pseudostate&#45;&gt;PseudostateKind -->
<g id="edge80" class="edge"><title>Pseudostate&#45;&gt;PseudostateKind</title>
<path fill="none" stroke="black" d="M574.119,-182.117C603.84,-167.42 648.248,-145.46 681.015,-129.256"/>
<polygon fill="black" stroke="black" points="682.941,-132.209 690.353,-124.639 679.838,-125.934 682.941,-132.209"/>
<text text-anchor="middle" x="662" y="-148.9" font-family="Times Roman,serif" font-size="14.00">kind</text>
</g>
<!-- State&#45;&gt;StateMachine -->
<g id="edge16" class="edge"><title>State&#45;&gt;StateMachine</title>
<path fill="none" stroke="black" d="M639.262,-396.021C642.392,-418.84 644.398,-458.49 627,-486 611.002,-511.296 582.678,-528.713 557.136,-540.072"/>
<polygon fill="black" stroke="black" points="555.727,-536.868 547.88,-543.986 558.454,-543.315 555.727,-536.868"/>
<text text-anchor="middle" x="677.5" y="-463.9" font-family="Times Roman,serif" font-size="14.00">submachine</text>
</g>
<!-- State&#45;&gt;Class -->
<g id="edge14" class="edge"><title>State&#45;&gt;Class</title>
<path fill="none" stroke="grey" d="M602.249,-375.77C513.977,-369.795 282.218,-353.12 270,-342 246.223,-320.359 249.652,-299.249 263,-270 323.823,-136.719 380.202,-117.971 512,-54 536.65,-42.0358 607.548,-30.5478 654.887,-23.8867"/>
<polygon fill="grey" stroke="grey" points="655.473,-27.3389 664.899,-22.5001 654.513,-20.4051 655.473,-27.3389"/>
<text text-anchor="middle" x="317.5" y="-193.9" font-family="Times Roman,serif" font-size="14.00">i</text>
</g>
<!-- State&#45;&gt;Region -->
<g id="edge22" class="edge"><title>State&#45;&gt;Region</title>
<path fill="none" stroke="black" d="M668.974,-383.03C767.018,-397.986 1057.24,-442.256 1175.24,-460.257"/>
<polygon fill="black" stroke="black" points="1175.03,-463.766 1185.45,-461.814 1176.09,-456.846 1175.03,-463.766"/>
<text text-anchor="middle" x="1003" y="-418.9" font-family="Times Roman,serif" font-size="14.00">region</text>
</g>
<!-- State&#45;&gt;Pseudostate -->
<g id="edge34" class="edge"><title>State&#45;&gt;Pseudostate</title>
<path fill="none" stroke="black" d="M631.071,-359.985C629.063,-348.423 628.835,-333.795 637,-324 662.84,-293.001 700.448,-337.237 726,-306 736.13,-293.616 735.02,-283.215 726,-270 711.21,-248.331 648.404,-226.852 600.241,-213.071"/>
<polygon fill="black" stroke="black" points="601.09,-209.675 590.516,-210.335 599.194,-216.413 601.09,-209.675"/>
<text text-anchor="middle" x="783.5" y="-283.9" font-family="Times Roman,serif" font-size="14.00">connectionPoint</text>
</g>
<!-- State&#45;&gt;State -->
<g id="edge20" class="edge"><title>State&#45;&gt;State</title>
<path fill="none" stroke="black" d="M666.445,-386.218C678.216,-386.583 688,-383.844 688,-378 688,-373.982 683.376,-371.432 676.66,-370.349"/>
<polygon fill="black" stroke="black" points="676.624,-366.842 666.445,-369.782 676.236,-373.831 676.624,-366.842"/>
<text text-anchor="middle" x="735" y="-373.9" font-family="Times Roman,serif" font-size="14.00">redefinedState</text>
</g>
<!-- State&#45;&gt;Behavior -->
<g id="edge28" class="edge"><title>State&#45;&gt;Behavior</title>
<path fill="none" stroke="black" d="M602.14,-374.788C547.226,-369.229 441.419,-356.959 407,-342 395.095,-336.826 394.749,-331.276 384,-324 376.052,-318.62 367.267,-313.215 358.87,-308.288"/>
<polygon fill="black" stroke="black" points="360.38,-305.118 349.969,-303.153 356.882,-311.182 360.38,-305.118"/>
<text text-anchor="middle" x="422.5" y="-328.9" font-family="Times Roman,serif" font-size="14.00">entry</text>
</g>
<!-- State&#45;&gt;Behavior -->
<g id="edge30" class="edge"><title>State&#45;&gt;Behavior</title>
<path fill="none" stroke="black" d="M602.293,-374.907C513.668,-366.737 280.714,-345 278,-342 268.684,-331.7 276.581,-319.774 288.123,-309.753"/>
<polygon fill="black" stroke="black" points="290.398,-312.417 296.089,-303.48 286.067,-306.917 290.398,-312.417"/>
<text text-anchor="middle" x="289" y="-328.9" font-family="Times Roman,serif" font-size="14.00">exit</text>
</g>
<!-- State&#45;&gt;Behavior -->
<g id="edge32" class="edge"><title>State&#45;&gt;Behavior</title>
<path fill="none" stroke="black" d="M602.068,-375.358C522.205,-368.978 328.361,-352.484 319,-342 312.708,-334.953 311.825,-325.105 313.072,-315.745"/>
<polygon fill="black" stroke="black" points="316.502,-316.439 315.104,-305.937 309.648,-315.019 316.502,-316.439"/>
<text text-anchor="middle" x="349.5" y="-328.9" font-family="Times Roman,serif" font-size="14.00">doActivity</text>
</g>
<!-- ConnectionPointReference -->
<g id="node16" class="node"><title>ConnectionPointReference</title>
<ellipse fill="none" stroke="black" cx="587" cy="-288" rx="130.137" ry="18"/>
<text text-anchor="middle" x="587" y="-283.9" font-family="Times Roman,serif" font-size="14.00">ConnectionPointReference</text>
</g>
<!-- State&#45;&gt;ConnectionPointReference -->
<g id="edge18" class="edge"><title>State&#45;&gt;ConnectionPointReference</title>
<path fill="none" stroke="black" d="M604.662,-370.374C579.679,-363.586 547.655,-353.046 540,-342 532.892,-331.743 538.59,-321.225 548.141,-312.229"/>
<polygon fill="black" stroke="black" points="550.583,-314.751 556.049,-305.675 546.116,-309.362 550.583,-314.751"/>
<text text-anchor="middle" x="574.5" y="-328.9" font-family="Times Roman,serif" font-size="14.00">connection</text>
</g>
<!-- State&#45;&gt;Classifier -->
<g id="edge24" class="edge"><title>State&#45;&gt;Classifier</title>
<path fill="none" stroke="black" d="M669.578,-374.366C721.209,-368.436 817.436,-355.935 849,-342 860.875,-336.758 859.92,-328.752 872,-324 959.174,-289.709 989.576,-321.26 1082,-306 1089.34,-304.788 1097.04,-303.222 1104.56,-301.522"/>
<polygon fill="black" stroke="black" points="1105.38,-304.925 1114.31,-299.226 1103.77,-298.112 1105.38,-304.925"/>
<text text-anchor="middle" x="931.5" y="-328.9" font-family="Times Roman,serif" font-size="14.00">redefinitionContext</text>
</g>
<!-- Constraint -->
<g id="node22" class="node"><title>Constraint</title>
<ellipse fill="none" stroke="black" cx="2204" cy="-288" rx="55.0898" ry="18"/>
<text text-anchor="middle" x="2204" y="-283.9" font-family="Times Roman,serif" font-size="14.00">Constraint</text>
</g>
<!-- State&#45;&gt;Constraint -->
<g id="edge26" class="edge"><title>State&#45;&gt;Constraint</title>
<path fill="none" stroke="black" d="M670.099,-376.444C744.27,-373.096 925.83,-365.1 1078,-360 1115.99,-358.727 1726.88,-356.535 1762,-342 1772.75,-337.552 1770.36,-328.699 1781,-324 1830.94,-301.947 1971.62,-310.747 2026,-306 2064.28,-302.659 2107.12,-298.344 2141.19,-294.776"/>
<polygon fill="black" stroke="black" points="2141.88,-298.223 2151.46,-293.695 2141.15,-291.261 2141.88,-298.223"/>
<text text-anchor="middle" x="1822.5" y="-328.9" font-family="Times Roman,serif" font-size="14.00">stateInvariant</text>
</g>
<!-- Trigger -->
<g id="node28" class="node"><title>Trigger</title>
<ellipse fill="none" stroke="black" cx="1640" cy="-288" rx="43.0827" ry="18"/>
<text text-anchor="middle" x="1640" y="-283.9" font-family="Times Roman,serif" font-size="14.00">Trigger</text>
</g>
<!-- State&#45;&gt;Trigger -->
<g id="edge36" class="edge"><title>State&#45;&gt;Trigger</title>
<path fill="none" stroke="black" d="M670.14,-377.236C755.449,-374.998 984.67,-366.954 1174,-342 1214.87,-336.613 1224.1,-329.16 1265,-324 1407.65,-306.007 1446.93,-333.783 1588,-306 1591.64,-305.284 1595.36,-304.372 1599.07,-303.34"/>
<polygon fill="black" stroke="black" points="1600.22,-306.647 1608.76,-300.378 1598.18,-299.953 1600.22,-306.647"/>
<text text-anchor="middle" x="1320.5" y="-328.9" font-family="Times Roman,serif" font-size="14.00">deferrableTrigger</text>
</g>
<!-- State&#45;&gt;Vertex -->
<g id="edge38" class="edge"><title>State&#45;&gt;Vertex</title>
<path fill="none" stroke="black" d="M639.833,-359.941C643.419,-347.734 650.077,-332.369 662,-324 694.18,-301.413 799.693,-314.847 838,-306 883.211,-295.558 890.574,-279.464 936,-270 1069.37,-242.214 1107.46,-273.417 1242,-252 1304.17,-242.103 1318.48,-233.334 1379,-216 1490.12,-184.173 1619.91,-142.758 1685.1,-121.657"/>
<polygon fill="black" stroke="black" points="1686.56,-124.862 1695,-118.449 1684.4,-118.204 1686.56,-124.862"/>
<text text-anchor="middle" x="1355" y="-238.9" font-family="Times Roman,serif" font-size="14.00">superClass</text>
</g>
<!-- State&#45;&gt;RedefinableElement -->
<g id="edge40" class="edge"><title>State&#45;&gt;RedefinableElement</title>
<path fill="none" stroke="black" d="M669.723,-375.694C746.106,-370.289 930.381,-356.188 991,-342 1013.18,-336.808 1016.77,-328.979 1039,-324 1070.68,-316.906 1253.47,-303.385 1372.98,-295.083"/>
<polygon fill="black" stroke="black" points="1373.52,-298.554 1383.26,-294.371 1373.04,-291.571 1373.52,-298.554"/>
<text text-anchor="middle" x="1075" y="-328.9" font-family="Times Roman,serif" font-size="14.00">superClass</text>
</g>
<!-- State&#45;&gt;Namespace -->
<g id="edge42" class="edge"><title>State&#45;&gt;Namespace</title>
<path fill="none" stroke="black" d="M645.642,-360.669C653.627,-348.146 666.208,-332.069 682,-324 726.865,-301.077 858.03,-312.427 908,-306 920.476,-304.395 933.754,-302.306 946.443,-300.122"/>
<polygon fill="black" stroke="black" points="947.225,-303.538 956.467,-298.357 946.012,-296.644 947.225,-303.538"/>
<text text-anchor="middle" x="718" y="-328.9" font-family="Times Roman,serif" font-size="14.00">superClass</text>
</g>
<!-- State&#45;&gt;Namespace -->
<g id="edge156" class="edge"><title>State&#45;&gt;Namespace</title>
<path fill="none" stroke="black" d="M668.033,-371.596C692.492,-365.921 726.549,-356.294 754,-342 765.513,-336.005 765.046,-329.058 777,-324 831.123,-301.098 849.949,-315.157 908,-306 920.216,-304.073 933.236,-301.867 945.725,-299.675"/>
<polygon fill="black" stroke="black" points="946.365,-303.116 955.602,-297.926 945.144,-296.224 946.365,-303.116"/>
<text text-anchor="middle" x="813" y="-328.9" font-family="Times Roman,serif" font-size="14.00">superClass</text>
</g>
<!-- ConnectionPointReference&#45;&gt;Class -->
<g id="edge92" class="edge"><title>ConnectionPointReference&#45;&gt;Class</title>
<path fill="none" stroke="grey" d="M648.718,-272.099C702.827,-254.662 778.663,-220.979 817,-162 834.455,-135.147 835.78,-117.871 820,-90 803.135,-60.2132 768.487,-41.4051 740.739,-30.5134"/>
<polygon fill="grey" stroke="grey" points="741.844,-27.1905 731.252,-26.9859 739.405,-33.7516 741.844,-27.1905"/>
<text text-anchor="middle" x="827.5" y="-148.9" font-family="Times Roman,serif" font-size="14.00">i</text>
</g>
<!-- ConnectionPointReference&#45;&gt;Pseudostate -->
<g id="edge94" class="edge"><title>ConnectionPointReference&#45;&gt;Pseudostate</title>
<path fill="none" stroke="black" d="M580.468,-269.63C576.457,-259.007 570.957,-245.507 565,-234 563.383,-230.876 561.575,-227.673 559.703,-224.528"/>
<polygon fill="black" stroke="black" points="562.612,-222.579 554.361,-215.933 556.667,-226.274 562.612,-222.579"/>
<text text-anchor="middle" x="588.5" y="-238.9" font-family="Times Roman,serif" font-size="14.00">entry</text>
</g>
<!-- ConnectionPointReference&#45;&gt;Pseudostate -->
<g id="edge98" class="edge"><title>ConnectionPointReference&#45;&gt;Pseudostate</title>
<path fill="none" stroke="black" d="M554.923,-270.53C548.509,-265.448 542.634,-259.267 539,-252 535.089,-244.179 534.421,-234.901 535.154,-226.262"/>
<polygon fill="black" stroke="black" points="538.644,-226.581 536.618,-216.182 531.717,-225.575 538.644,-226.581"/>
<text text-anchor="middle" x="550" y="-238.9" font-family="Times Roman,serif" font-size="14.00">exit</text>
</g>
<!-- ConnectionPointReference&#45;&gt;State -->
<g id="edge96" class="edge"><title>ConnectionPointReference&#45;&gt;State</title>
<path fill="none" stroke="black" d="M527.356,-304.005C505.317,-312.958 488.433,-325.643 501,-342 512.231,-356.618 557.716,-366.569 592.82,-372.241"/>
<polygon fill="black" stroke="black" points="592.452,-375.725 602.869,-373.796 593.522,-368.808 592.452,-375.725"/>
<text text-anchor="middle" x="516.5" y="-328.9" font-family="Times Roman,serif" font-size="14.00">state</text>
</g>
<!-- ConnectionPointReference&#45;&gt;Vertex -->
<g id="edge100" class="edge"><title>ConnectionPointReference&#45;&gt;Vertex</title>
<path fill="none" stroke="black" d="M680.685,-275.455C750.29,-266.112 836.006,-254.549 853,-252 1169.87,-204.464 1549.9,-138.917 1680.38,-116.167"/>
<polygon fill="black" stroke="black" points="1681.17,-119.581 1690.42,-114.414 1679.97,-112.685 1681.17,-119.581"/>
<text text-anchor="middle" x="1339" y="-193.9" font-family="Times Roman,serif" font-size="14.00">superClass</text>
</g>
<!-- Vertex&#45;&gt;Class -->
<g id="edge68" class="edge"><title>Vertex&#45;&gt;Class</title>
<path fill="none" stroke="grey" d="M1697.63,-96.104C1664.03,-83.1156 1607.05,-62.9717 1556,-54 1398.47,-26.3174 901.516,-19.7396 746.591,-18.3437"/>
<polygon fill="grey" stroke="grey" points="746.492,-14.8428 736.462,-18.2555 746.431,-21.8425 746.492,-14.8428"/>
<text text-anchor="middle" x="1628.5" y="-58.9" font-family="Times Roman,serif" font-size="14.00">i</text>
</g>
<!-- Vertex&#45;&gt;Region -->
<g id="edge70" class="edge"><title>Vertex&#45;&gt;Region</title>
<path fill="none" stroke="black" d="M1729.11,-126.306C1734.92,-178.436 1749.94,-325.018 1737,-342 1681.25,-415.188 1397,-451.2 1278.24,-463.235"/>
<polygon fill="black" stroke="black" points="1277.9,-459.753 1268.29,-464.227 1278.59,-466.718 1277.9,-459.753"/>
<text text-anchor="middle" x="1771" y="-283.9" font-family="Times Roman,serif" font-size="14.00">container</text>
</g>
<!-- Vertex&#45;&gt;Transition -->
<g id="edge72" class="edge"><title>Vertex&#45;&gt;Transition</title>
<path fill="none" stroke="black" d="M1764.56,-113.297C1799.86,-118.871 1853.85,-128.946 1899,-144 1977.14,-170.052 2021.34,-161.813 2061,-234 2084.83,-277.363 2067.91,-305.971 2034,-342 2023.25,-353.423 2008.57,-361.237 1993.84,-366.576"/>
<polygon fill="black" stroke="black" points="1992.61,-363.297 1984.2,-369.741 1994.79,-369.948 1992.61,-363.297"/>
<text text-anchor="middle" x="2095.5" y="-238.9" font-family="Times Roman,serif" font-size="14.00">outgoing</text>
</g>
<!-- Vertex&#45;&gt;Transition -->
<g id="edge74" class="edge"><title>Vertex&#45;&gt;Transition</title>
<path fill="none" stroke="black" d="M1765.69,-110.81C1827.61,-116.579 1951.53,-133.413 2045,-180 2084.06,-199.465 2106.3,-195.585 2127,-234 2154.36,-284.786 2102.78,-309.669 2055,-342 2037.1,-354.111 2015,-362.255 1994.73,-367.683"/>
<polygon fill="black" stroke="black" points="1993.79,-364.308 1984.95,-370.135 1995.5,-371.098 1993.79,-364.308"/>
<text text-anchor="middle" x="2161.5" y="-238.9" font-family="Times Roman,serif" font-size="14.00">incoming</text>
</g>
<!-- NamedElement -->
<g id="node54" class="node"><title>NamedElement</title>
<ellipse fill="none" stroke="black" cx="1727" cy="-18" rx="79.2166" ry="18"/>
<text text-anchor="middle" x="1727" y="-13.9" font-family="Times Roman,serif" font-size="14.00">NamedElement</text>
</g>
<!-- Vertex&#45;&gt;NamedElement -->
<g id="edge76" class="edge"><title>Vertex&#45;&gt;NamedElement</title>
<path fill="none" stroke="black" d="M1727,-89.7872C1727,-77.3443 1727,-60.6053 1727,-46.4211"/>
<polygon fill="black" stroke="black" points="1730.5,-46.1857 1727,-36.1858 1723.5,-46.1858 1730.5,-46.1857"/>
<text text-anchor="middle" x="1763" y="-58.9" font-family="Times Roman,serif" font-size="14.00">superClass</text>
</g>
<!-- Transition&#45;&gt;Class -->
<g id="edge44" class="edge"><title>Transition&#45;&gt;Class</title>
<path fill="none" stroke="grey" d="M1939.86,-359.989C1941.25,-348.28 1940.72,-333.481 1932,-324 1897.58,-286.561 1862.78,-331.878 1819,-306 1801.55,-295.686 1807.42,-281.886 1791,-270 1560.07,-102.823 1465.91,-113.045 1187,-54 1103.71,-36.3669 851.334,-24.2426 746.467,-19.8373"/>
<polygon fill="grey" stroke="grey" points="746.334,-16.3288 736.197,-19.4108 746.043,-23.3228 746.334,-16.3288"/>
<text text-anchor="middle" x="1712.5" y="-193.9" font-family="Times Roman,serif" font-size="14.00">i</text>
</g>
<!-- Transition&#45;&gt;Region -->
<g id="edge48" class="edge"><title>Transition&#45;&gt;Region</title>
<path fill="none" stroke="black" d="M1919.18,-395.116C1905.4,-407.879 1884.71,-424.37 1863,-432 1814.53,-449.031 1452.24,-446.37 1401,-450 1359.41,-452.946 1312.41,-457.869 1277.59,-461.823"/>
<polygon fill="black" stroke="black" points="1277.19,-458.346 1267.66,-462.962 1277.99,-465.3 1277.19,-458.346"/>
<text text-anchor="middle" x="1924" y="-418.9" font-family="Times Roman,serif" font-size="14.00">container</text>
</g>
<!-- Transition&#45;&gt;Behavior -->
<g id="edge60" class="edge"><title>Transition&#45;&gt;Behavior</title>
<path fill="none" stroke="black" d="M1882.55,-375.292C1810.46,-371.666 1678.06,-365.098 1565,-360 1517.01,-357.836 1177.9,-359.089 1133,-342 1121.19,-337.506 1122.84,-328.395 1111,-324 1035.45,-295.97 465.682,-318.002 386,-306 380.507,-305.173 374.818,-304.02 369.2,-302.694"/>
<polygon fill="black" stroke="black" points="369.777,-299.23 359.223,-300.153 368.049,-306.013 369.777,-299.23"/>
<text text-anchor="middle" x="1151.5" y="-328.9" font-family="Times Roman,serif" font-size="14.00">effect</text>
</g>
<!-- Transition&#45;&gt;Classifier -->
<g id="edge58" class="edge"><title>Transition&#45;&gt;Classifier</title>
<path fill="none" stroke="black" d="M1882.39,-375.554C1785.79,-370.785 1586.33,-359.185 1519,-342 1499.72,-337.078 1497.22,-329.161 1478,-324 1430.15,-311.151 1295.95,-298.989 1216.39,-292.619"/>
<polygon fill="black" stroke="black" points="1216.26,-289.098 1206.01,-291.796 1215.71,-296.076 1216.26,-289.098"/>
<text text-anchor="middle" x="1578.5" y="-328.9" font-family="Times Roman,serif" font-size="14.00">redefinitionContext</text>
</g>
<!-- Transition&#45;&gt;Constraint -->
<g id="edge56" class="edge"><title>Transition&#45;&gt;Constraint</title>
<path fill="none" stroke="black" d="M1986.65,-371.446C2035.56,-364.618 2105.81,-353.348 2131,-342 2142.83,-336.668 2143.62,-331.794 2154,-324 2159.94,-319.54 2166.34,-314.851 2172.5,-310.386"/>
<polygon fill="black" stroke="black" points="2174.64,-313.161 2180.71,-304.477 2170.55,-307.481 2174.64,-313.161"/>
<text text-anchor="middle" x="2172" y="-328.9" font-family="Times Roman,serif" font-size="14.00">guard</text>
</g>
<!-- Transition&#45;&gt;Trigger -->
<g id="edge62" class="edge"><title>Transition&#45;&gt;Trigger</title>
<path fill="none" stroke="black" d="M1915.15,-361.329C1895.42,-345.571 1868.7,-324.287 1868,-324 1797.26,-295.087 1771.81,-321.585 1697,-306 1692.36,-305.032 1687.55,-303.836 1682.79,-302.524"/>
<polygon fill="black" stroke="black" points="1683.74,-299.154 1673.16,-299.704 1681.77,-305.872 1683.74,-299.154"/>
<text text-anchor="middle" x="1910.5" y="-328.9" font-family="Times Roman,serif" font-size="14.00">trigger</text>
</g>
<!-- Transition&#45;&gt;Vertex -->
<g id="edge50" class="edge"><title>Transition&#45;&gt;Vertex</title>
<path fill="none" stroke="black" d="M1977.32,-366.233C1990.54,-360.719 2004.25,-352.891 2014,-342 2035.64,-317.827 2040.55,-298.996 2026,-270 1977.42,-173.182 1844.89,-131.93 1773.7,-116.327"/>
<polygon fill="black" stroke="black" points="1774.16,-112.848 1763.66,-114.208 1772.72,-119.698 1774.16,-112.848"/>
<text text-anchor="middle" x="2037" y="-238.9" font-family="Times Roman,serif" font-size="14.00">source</text>
</g>
<!-- Transition&#45;&gt;Vertex -->
<g id="edge52" class="edge"><title>Transition&#45;&gt;Vertex</title>
<path fill="none" stroke="black" d="M1951.27,-360.473C1959.25,-349.117 1965.73,-334.535 1957,-324 1929.59,-290.905 1897.95,-329.544 1862,-306 1797.58,-263.812 1755.75,-179.132 1737.51,-135.453"/>
<polygon fill="black" stroke="black" points="1740.69,-133.976 1733.68,-126.031 1734.2,-136.613 1740.69,-133.976"/>
<text text-anchor="middle" x="1822" y="-238.9" font-family="Times Roman,serif" font-size="14.00">target</text>
</g>
<!-- Transition&#45;&gt;RedefinableElement -->
<g id="edge64" class="edge"><title>Transition&#45;&gt;RedefinableElement</title>
<path fill="none" stroke="black" d="M1883.53,-373.595C1833.28,-368.611 1755.63,-358.9 1690,-342 1667.94,-336.318 1663.85,-330.459 1642,-324 1614.98,-316.013 1584.99,-308.925 1558.12,-303.197"/>
<polygon fill="black" stroke="black" points="1558.49,-299.699 1547.98,-301.068 1557.05,-306.549 1558.49,-299.699"/>
<text text-anchor="middle" x="1726" y="-328.9" font-family="Times Roman,serif" font-size="14.00">superClass</text>
</g>
<!-- Transition&#45;&gt;Namespace -->
<g id="edge66" class="edge"><title>Transition&#45;&gt;Namespace</title>
<path fill="none" stroke="black" d="M1882.54,-375.276C1751.65,-368.486 1424.09,-350.733 1402,-342 1390.25,-337.355 1391.76,-328.619 1380,-324 1320.73,-300.717 1157.1,-314.619 1094,-306 1085.62,-304.855 1076.84,-303.349 1068.22,-301.694"/>
<polygon fill="black" stroke="black" points="1068.72,-298.224 1058.23,-299.695 1067.35,-305.088 1068.72,-298.224"/>
<text text-anchor="middle" x="1438" y="-328.9" font-family="Times Roman,serif" font-size="14.00">superClass</text>
</g>
<!-- Transition&#45;&gt;Transition -->
<g id="edge54" class="edge"><title>Transition&#45;&gt;Transition</title>
<path fill="none" stroke="black" d="M1984.12,-386.209C1997.63,-385.85 2008,-383.113 2008,-378 2008,-374.285 2002.52,-371.824 1994.35,-370.619"/>
<polygon fill="black" stroke="black" points="1994.37,-367.109 1984.12,-369.791 1993.8,-374.086 1994.37,-367.109"/>
<text text-anchor="middle" x="2069" y="-373.9" font-family="Times Roman,serif" font-size="14.00">redefinedTransition</text>
</g>
<!-- TransitionKind -->
<g id="node38" class="node"><title>TransitionKind</title>
<ellipse fill="none" stroke="black" cx="1944" cy="-288" rx="73.1565" ry="18"/>
<text text-anchor="middle" x="1944" y="-283.9" font-family="Times Roman,serif" font-size="14.00">TransitionKind</text>
</g>
<!-- Transition&#45;&gt;TransitionKind -->
<g id="edge46" class="edge"><title>Transition&#45;&gt;TransitionKind</title>
<path fill="none" stroke="black" d="M1963.9,-362.57C1971.13,-357.09 1978,-350.205 1982,-342 1986.97,-331.798 1982.41,-321.41 1974.96,-312.507"/>
<polygon fill="black" stroke="black" points="1977.28,-309.876 1967.82,-305.107 1972.24,-314.735 1977.28,-309.876"/>
<text text-anchor="middle" x="1997" y="-328.9" font-family="Times Roman,serif" font-size="14.00">kind</text>
</g>
<!-- FinalState -->
<g id="node61" class="node"><title>FinalState</title>
<ellipse fill="none" stroke="black" cx="167" cy="-468" rx="54.8957" ry="18"/>
<text text-anchor="middle" x="167" y="-463.9" font-family="Times Roman,serif" font-size="14.00">FinalState</text>
</g>
<!-- FinalState&#45;&gt;Class -->
<g id="edge88" class="edge"><title>FinalState&#45;&gt;Class</title>
<path fill="none" stroke="grey" d="M152.016,-450.336C138.925,-433.063 122,-405.427 122,-378 122,-378 122,-378 122,-108 122,-54.3045 516.483,-27.9036 653.658,-20.3463"/>
<polygon fill="grey" stroke="grey" points="654.048,-23.8304 663.844,-19.7939 653.669,-16.8407 654.048,-23.8304"/>
<text text-anchor="middle" x="123.5" y="-238.9" font-family="Times Roman,serif" font-size="14.00">i</text>
</g>
<!-- FinalState&#45;&gt;State -->
<g id="edge90" class="edge"><title>FinalState&#45;&gt;State</title>
<path fill="none" stroke="black" d="M200.837,-453.77C231.818,-441.333 279.219,-423.778 322,-414 416.559,-392.388 530.249,-383.458 591.562,-380"/>
<polygon fill="black" stroke="black" points="591.867,-383.489 601.664,-379.453 591.489,-376.499 591.867,-383.489"/>
<text text-anchor="middle" x="358" y="-418.9" font-family="Times Roman,serif" font-size="14.00">superClass</text>
</g>
<!-- TimeEvent -->
<g id="node78" class="node"><title>TimeEvent</title>
<ellipse fill="none" stroke="black" cx="561" cy="-108" rx="57.8712" ry="18"/>
<text text-anchor="middle" x="561" y="-103.9" font-family="Times Roman,serif" font-size="14.00">TimeEvent</text>
</g>
<!-- TimeEvent&#45;&gt;Class -->
<g id="edge120" class="edge"><title>TimeEvent&#45;&gt;Class</title>
<path fill="none" stroke="grey" d="M586.172,-91.7017C609.444,-76.6333 644.097,-54.1959 669.051,-38.0386"/>
<polygon fill="grey" stroke="grey" points="671.275,-40.7683 677.767,-32.3953 667.471,-34.8925 671.275,-40.7683"/>
<text text-anchor="middle" x="643.5" y="-58.9" font-family="Times Roman,serif" font-size="14.00">i</text>
</g>
<!-- ProtocolConformance -->
<g id="node80" class="node"><title>ProtocolConformance</title>
<ellipse fill="none" stroke="black" cx="1460" cy="-558" rx="107.902" ry="18"/>
<text text-anchor="middle" x="1460" y="-553.9" font-family="Times Roman,serif" font-size="14.00">ProtocolConformance</text>
</g>
<!-- ProtocolConformance&#45;&gt;Class -->
<g id="edge122" class="edge"><title>ProtocolConformance&#45;&gt;Class</title>
<path fill="none" stroke="grey" d="M1566.83,-555.098C1850.48,-546.69 2601,-519.57 2601,-468 2601,-468 2601,-468 2601,-108 2601,-78.8665 2678.9,-83.7678 2087,-54 1560.96,-27.5443 921.66,-20.0184 746.347,-18.3858"/>
<polygon fill="grey" stroke="grey" points="746.22,-14.8846 736.188,-18.293 746.156,-21.8843 746.22,-14.8846"/>
<text text-anchor="middle" x="2602.5" y="-283.9" font-family="Times Roman,serif" font-size="14.00">i</text>
</g>
<!-- ProtocolStateMachine -->
<g id="node83" class="node"><title>ProtocolStateMachine</title>
<ellipse fill="none" stroke="black" cx="1212" cy="-648" rx="107.206" ry="18"/>
<text text-anchor="middle" x="1212" y="-643.9" font-family="Times Roman,serif" font-size="14.00">ProtocolStateMachine</text>
</g>
<!-- ProtocolConformance&#45;&gt;ProtocolStateMachine -->
<g id="edge124" class="edge"><title>ProtocolConformance&#45;&gt;ProtocolStateMachine</title>
<path fill="none" stroke="black" d="M1363.41,-566.124C1298.58,-572.574 1223.21,-582.417 1213,-594 1206.87,-600.952 1205.33,-610.582 1205.74,-619.788"/>
<polygon fill="black" stroke="black" points="1202.28,-620.3 1206.9,-629.835 1209.23,-619.5 1202.28,-620.3"/>
<text text-anchor="middle" x="1264" y="-598.9" font-family="Times Roman,serif" font-size="14.00">specificMachine</text>
</g>
<!-- ProtocolConformance&#45;&gt;ProtocolStateMachine -->
<g id="edge126" class="edge"><title>ProtocolConformance&#45;&gt;ProtocolStateMachine</title>
<path fill="none" stroke="black" d="M1394.61,-572.394C1375.77,-577.831 1355.57,-584.952 1338,-594 1326.46,-599.942 1326.39,-605.775 1315,-612 1302.96,-618.579 1289.49,-624.316 1276.36,-629.162"/>
<polygon fill="black" stroke="black" points="1275.14,-625.883 1266.89,-632.533 1277.48,-632.479 1275.14,-625.883"/>
<text text-anchor="middle" x="1388" y="-598.9" font-family="Times Roman,serif" font-size="14.00">generalMachine</text>
</g>
<!-- DirectedRelationship -->
<g id="node86" class="node"><title>DirectedRelationship</title>
<ellipse fill="none" stroke="black" cx="1513" cy="-468" rx="102.843" ry="18"/>
<text text-anchor="middle" x="1513" y="-463.9" font-family="Times Roman,serif" font-size="14.00">DirectedRelationship</text>
</g>
<!-- ProtocolConformance&#45;&gt;DirectedRelationship -->
<g id="edge128" class="edge"><title>ProtocolConformance&#45;&gt;DirectedRelationship</title>
<path fill="none" stroke="black" d="M1470.73,-539.787C1478.27,-526.978 1488.49,-509.617 1497,-495.176"/>
<polygon fill="black" stroke="black" points="1500.23,-496.579 1502.29,-486.186 1494.2,-493.027 1500.23,-496.579"/>
<text text-anchor="middle" x="1527" y="-508.9" font-family="Times Roman,serif" font-size="14.00">superClass</text>
</g>
<!-- ProtocolStateMachine&#45;&gt;StateMachine -->
<g id="edge154" class="edge"><title>ProtocolStateMachine&#45;&gt;StateMachine</title>
<path fill="none" stroke="black" d="M1126.48,-637.144C986.127,-619.328 709.318,-584.19 576.926,-567.384"/>
<polygon fill="black" stroke="black" points="577.239,-563.896 566.878,-566.109 576.358,-570.84 577.239,-563.896"/>
<text text-anchor="middle" x="957" y="-598.9" font-family="Times Roman,serif" font-size="14.00">superClass</text>
</g>
<!-- ProtocolStateMachine&#45;&gt;Class -->
<g id="edge150" class="edge"><title>ProtocolStateMachine&#45;&gt;Class</title>
<path fill="none" stroke="grey" d="M1106,-645.364C817.221,-637.486 38,-611.292 38,-558 38,-558 38,-558 38,-108 38,-62.4905 81.6461,-67.8402 125,-54 174.757,-38.1157 526.119,-24.1857 653.783,-19.5956"/>
<polygon fill="grey" stroke="grey" points="654.139,-23.0853 664.008,-19.2308 653.89,-16.0897 654.139,-23.0853"/>
<text text-anchor="middle" x="39.5" y="-328.9" font-family="Times Roman,serif" font-size="14.00">i</text>
</g>
<!-- ProtocolStateMachine&#45;&gt;ProtocolConformance -->
<g id="edge152" class="edge"><title>ProtocolStateMachine&#45;&gt;ProtocolConformance</title>
<path fill="none" stroke="black" d="M1312.18,-641.648C1363.12,-636.562 1418.36,-627.593 1438,-612 1446.18,-605.507 1451.34,-595.478 1454.59,-585.817"/>
<polygon fill="black" stroke="black" points="1457.99,-586.619 1457.32,-576.046 1451.25,-584.732 1457.99,-586.619"/>
<text text-anchor="middle" x="1492.5" y="-598.9" font-family="Times Roman,serif" font-size="14.00">conformance</text>
</g>
<!-- Interface -->
<g id="node87" class="node"><title>Interface</title>
<ellipse fill="none" stroke="black" cx="1025" cy="-738" rx="50.0315" ry="18"/>
<text text-anchor="middle" x="1025" y="-733.9" font-family="Times Roman,serif" font-size="14.00">Interface</text>
</g>
<!-- Interface&#45;&gt;Class -->
<g id="edge130" class="edge"><title>Interface&#45;&gt;Class</title>
<path fill="none" stroke="grey" d="M975.216,-736.27C769.947,-728.813 0,-697.544 0,-648 0,-648 0,-648 0,-108 0,-73.4246 24.3113,-67.8306 56,-54 110.264,-30.3166 514.397,-21.1946 653.287,-18.7385"/>
<polygon fill="grey" stroke="grey" points="653.654,-22.2328 663.591,-18.56 653.532,-15.2339 653.654,-22.2328"/>
<text text-anchor="middle" x="1.5" y="-373.9" font-family="Times Roman,serif" font-size="14.00">i</text>
</g>
<!-- Interface&#45;&gt;Classifier -->
<g id="edge134" class="edge"><title>Interface&#45;&gt;Classifier</title>
<path fill="none" stroke="black" d="M1025,-719.728C1025,-701.545 1025,-672.844 1025,-648 1025,-648 1025,-648 1025,-468 1025,-407.462 1054.06,-387.48 1108,-360 1133.95,-346.781 1153.46,-365.248 1171,-342 1177.01,-334.038 1175.69,-323.848 1171.92,-314.469"/>
<polygon fill="black" stroke="black" points="1175.06,-312.923 1167.53,-305.474 1168.77,-315.995 1175.06,-312.923"/>
<text text-anchor="middle" x="1061" y="-508.9" font-family="Times Roman,serif" font-size="14.00">superClass</text>
</g>
<!-- Interface&#45;&gt;ProtocolStateMachine -->
<g id="edge132" class="edge"><title>Interface&#45;&gt;ProtocolStateMachine</title>
<path fill="none" stroke="black" d="M1055.04,-723.54C1085.34,-708.96 1132.46,-686.283 1167.17,-669.577"/>
<polygon fill="black" stroke="black" points="1169.11,-672.525 1176.61,-665.035 1166.08,-666.218 1169.11,-672.525"/>
<text text-anchor="middle" x="1161" y="-688.9" font-family="Times Roman,serif" font-size="14.00">protocol</text>
</g>
<!-- Port -->
<g id="node91" class="node"><title>Port</title>
<ellipse fill="none" stroke="black" cx="1958" cy="-738" rx="29.1851" ry="18"/>
<text text-anchor="middle" x="1958" y="-733.9" font-family="Times Roman,serif" font-size="14.00">Port</text>
</g>
<!-- Port&#45;&gt;Class -->
<g id="edge136" class="edge"><title>Port&#45;&gt;Class</title>
<path fill="none" stroke="grey" d="M1987.17,-737.311C2118.31,-733.836 2647,-715.631 2647,-648 2647,-648 2647,-648 2647,-108 2647,-64.8617 2868.17,-92.0039 2270,-54 2114.83,-44.1416 989.655,-23.2689 746.322,-18.8378"/>
<polygon fill="grey" stroke="grey" points="746.122,-15.3337 736.06,-18.6512 745.995,-22.3325 746.122,-15.3337"/>
<text text-anchor="middle" x="2648.5" y="-373.9" font-family="Times Roman,serif" font-size="14.00">i</text>
</g>
<!-- Port&#45;&gt;ProtocolStateMachine -->
<g id="edge138" class="edge"><title>Port&#45;&gt;ProtocolStateMachine</title>
<path fill="none" stroke="black" d="M1929.21,-734.527C1827.28,-722.23 1480.46,-680.388 1309.24,-659.732"/>
<polygon fill="black" stroke="black" points="1309.57,-656.246 1299.22,-658.523 1308.73,-663.195 1309.57,-656.246"/>
<text text-anchor="middle" x="1677" y="-688.9" font-family="Times Roman,serif" font-size="14.00">protocol</text>
</g>
<!-- ProtocolTransition -->
<g id="node94" class="node"><title>ProtocolTransition</title>
<ellipse fill="none" stroke="black" cx="2328" cy="-468" rx="91.0296" ry="18"/>
<text text-anchor="middle" x="2328" y="-463.9" font-family="Times Roman,serif" font-size="14.00">ProtocolTransition</text>
</g>
<!-- ProtocolTransition&#45;&gt;Class -->
<g id="edge140" class="edge"><title>ProtocolTransition&#45;&gt;Class</title>
<path fill="none" stroke="grey" d="M2393.31,-455.378C2450.46,-442.797 2526.93,-421.677 2544,-396 2581.74,-339.223 2555,-311.176 2555,-243 2555,-243 2555,-243 2555,-108 2555,-61.2713 1033.03,-25.3538 746.282,-19.0015"/>
<polygon fill="grey" stroke="grey" points="746.297,-15.5011 736.223,-18.7796 746.143,-22.4994 746.297,-15.5011"/>
<text text-anchor="middle" x="2556.5" y="-238.9" font-family="Times Roman,serif" font-size="14.00">i</text>
</g>
<!-- ProtocolTransition&#45;&gt;Constraint -->
<g id="edge142" class="edge"><title>ProtocolTransition&#45;&gt;Constraint</title>
<path fill="none" stroke="black" d="M2287.12,-451.787C2262.97,-440.009 2234.07,-421.622 2218,-396 2203.09,-372.215 2200.76,-339.688 2201.44,-316.562"/>
<polygon fill="black" stroke="black" points="2204.95,-316.516 2201.95,-306.354 2197.96,-316.167 2204.95,-316.516"/>
<text text-anchor="middle" x="2262" y="-373.9" font-family="Times Roman,serif" font-size="14.00">postCondition</text>
</g>
<!-- ProtocolTransition&#45;&gt;Constraint -->
<g id="edge146" class="edge"><title>ProtocolTransition&#45;&gt;Constraint</title>
<path fill="none" stroke="black" d="M2328.26,-449.648C2327.74,-426.837 2324,-387.556 2306,-360 2291.27,-337.451 2266.81,-319.83 2245.54,-307.664"/>
<polygon fill="black" stroke="black" points="2247.1,-304.531 2236.65,-302.786 2243.74,-310.667 2247.1,-304.531"/>
<text text-anchor="middle" x="2360.5" y="-373.9" font-family="Times Roman,serif" font-size="14.00">preCondition</text>
</g>
<!-- ProtocolTransition&#45;&gt;Transition -->
<g id="edge148" class="edge"><title>ProtocolTransition&#45;&gt;Transition</title>
<path fill="none" stroke="black" d="M2253.71,-457.465C2213.34,-451.189 2162.67,-442.417 2118,-432 2072.08,-421.293 2020.65,-405.69 1984.21,-394.007"/>
<polygon fill="black" stroke="black" points="1984.94,-390.564 1974.34,-390.823 1982.79,-397.225 1984.94,-390.564"/>
<text text-anchor="middle" x="2154" y="-418.9" font-family="Times Roman,serif" font-size="14.00">superClass</text>
</g>
<!-- Operation -->
<g id="node98" class="node"><title>Operation</title>
<ellipse fill="none" stroke="black" cx="2481" cy="-378" rx="54.2008" ry="18"/>
<text text-anchor="middle" x="2481" y="-373.9" font-family="Times Roman,serif" font-size="14.00">Operation</text>
</g>
<!-- ProtocolTransition&#45;&gt;Operation -->
<g id="edge144" class="edge"><title>ProtocolTransition&#45;&gt;Operation</title>
<path fill="none" stroke="black" d="M2357.14,-450.86C2382.3,-436.06 2418.73,-414.63 2445.57,-398.841"/>
<polygon fill="black" stroke="black" points="2447.43,-401.808 2454.27,-393.721 2443.88,-395.774 2447.43,-401.808"/>
<text text-anchor="middle" x="2443.5" y="-418.9" font-family="Times Roman,serif" font-size="14.00">referred</text>
</g>
</g>
</svg>
