<?xml version="1.0" encoding="UTF-8" standalone="no"?>
<!DOCTYPE svg PUBLIC "-//W3C//DTD SVG 1.1//EN"
 "http://www.w3.org/Graphics/SVG/1.1/DTD/svg11.dtd">
<!-- Generated by graphviz version 2.22.2 (20090313.1817)
 -->
<!-- Title: appleInBasket Pages: 1 -->
<svg width="182pt" height="134pt"
 viewBox="0.00 0.00 182.00 134.00" xmlns="http://www.w3.org/2000/svg" xmlns:xlink="http://www.w3.org/1999/xlink">
<g id="graph1" class="graph" transform="scale(1 1) rotate(0) translate(4 130)">
<title>appleInBasket</title>
<polygon fill="white" stroke="white" points="-4,5 -4,-130 179,-130 179,5 -4,5"/>
<!-- apple -->
<g id="node1" class="node"><title>apple</title>
<ellipse fill="none" stroke="black" cx="35" cy="-108" rx="34.9399" ry="18"/>
<text text-anchor="middle" x="35" y="-103.9" font-family="Times Roman,serif" font-size="14.00">apple</text>
</g>
<!-- basket -->
<g id="node3" class="node"><title>basket</title>
<ellipse fill="none" stroke="black" cx="83" cy="-18" rx="39.8056" ry="18"/>
<text text-anchor="middle" x="83" y="-13.9" font-family="Times Roman,serif" font-size="14.00">basket</text>
</g>
<!-- apple&#45;&gt;basket -->
<g id="edge2" class="edge"><title>apple&#45;&gt;basket</title>
<path fill="none" stroke="black" d="M44.4833,-90.2189C51.3862,-77.2758 60.8557,-59.5206 68.6777,-44.8543"/>
<polygon fill="black" stroke="black" points="71.9188,-46.2148 73.5364,-35.7442 65.7423,-42.9206 71.9188,-46.2148"/>
<text text-anchor="middle" x="69.5" y="-58.9" font-family="Times Roman,serif" font-size="14.00">in</text>
</g>
<!-- banana -->
<g id="node4" class="node"><title>banana</title>
<ellipse fill="none" stroke="black" cx="131" cy="-108" rx="43.0827" ry="18"/>
<text text-anchor="middle" x="131" y="-103.9" font-family="Times Roman,serif" font-size="14.00">banana</text>
</g>
<!-- banana&#45;&gt;basket -->
<g id="edge4" class="edge"><title>banana&#45;&gt;basket</title>
<path fill="none" stroke="black" d="M121.517,-90.2189C114.614,-77.2758 105.144,-59.5206 97.3223,-44.8543"/>
<polygon fill="black" stroke="black" points="100.258,-42.9206 92.4636,-35.7442 94.0812,-46.2148 100.258,-42.9206"/>
<text text-anchor="middle" x="116.5" y="-58.9" font-family="Times Roman,serif" font-size="14.00">in</text>
</g>
</g>
</svg>
